<svg width="4803" height="7032" viewBox="0 0 4803 7032" fill="none" xmlns="http://www.w3.org/2000/svg">
<g clip-path="url(#clip0)">
<rect width="4803" height="7032" fill="white"/>
<g opacity="0.15">
<path opacity="0.0344828" d="M534.196 4873.85C512.341 4864.54 515.516 4832.6 538.724 4828.31L1749.58 4604.24C1763.01 4601.75 1772.07 4589.19 1770.24 4575.57L1597.9 3290.83C1594.67 3266.75 1625.06 3254.05 1640.18 3273.16L2424.99 4264.51C2434.06 4275.96 2450.67 4277.81 2461.79 4268.6L3424.41 3471.42C3442.96 3456.06 3470.19 3475.16 3462.3 3498L3041.07 4716.78C3036.6 4729.7 3042.99 4743.98 3055.64 4749.37L4195.97 5234.7C4217.82 5244 4214.65 5275.94 4191.44 5280.24L2980.59 5504.3C2967.16 5506.79 2958.1 5519.36 2959.93 5532.97L3132.27 6817.72C3135.5 6841.79 3105.1 6854.49 3089.98 6835.39L2305.17 5844.04C2296.1 5832.58 2279.49 5830.74 2268.37 5839.95L1305.76 6637.12C1287.21 6652.49 1259.97 6633.39 1267.87 6610.55L1689.1 5391.76C1693.56 5378.84 1687.17 5364.56 1674.52 5359.17L534.196 4873.85Z" stroke="#003459" stroke-width="2"/>
<path opacity="0.0689655" d="M568.989 4776.72C547.629 4766.22 552.388 4734.46 575.77 4731.45L1779.69 4576.79C1793.23 4575.06 1802.9 4562.99 1801.75 4549.27L1694.69 3274.05C1692.66 3249.82 1723.6 3238.8 1737.76 3258.71L2462.62 4278.34C2471.1 4290.27 2487.56 4293.03 2499.11 4284.45L3486.53 3551.53C3505.81 3537.22 3532.01 3557.82 3523 3580.2L3048.45 4758.03C3043.35 4770.7 3049.01 4785.33 3061.38 4791.41L4161.17 5331.82C4182.53 5342.32 4177.77 5374.08 4154.39 5377.09L2950.47 5531.75C2936.93 5533.49 2927.26 5545.55 2928.41 5559.27L3035.47 6834.49C3037.5 6858.72 3006.56 6869.75 2992.41 6849.84L2267.54 5830.2C2259.06 5818.27 2242.6 5815.51 2231.05 5824.09L1243.63 6557.01C1224.35 6571.32 1198.15 6550.72 1207.16 6528.34L1681.71 5350.51C1686.81 5337.84 1681.15 5323.21 1668.78 5317.13L568.989 4776.72Z" stroke="#003459" stroke-width="2"/>
<path opacity="0.103448" d="M608.34 4682.95C587.535 4671.29 593.871 4639.78 617.363 4638.07L1810.82 4551.43C1824.42 4550.44 1834.68 4538.9 1834.21 4525.12L1791.02 3263.09C1790.19 3238.77 1821.59 3229.42 1834.73 3250.08L2499.05 4294.17C2506.92 4306.53 2523.17 4310.18 2535.11 4302.27L3543.68 3634.12C3563.64 3620.9 3588.73 3642.94 3578.61 3664.8L3053.63 4799.15C3047.9 4811.54 3052.83 4826.49 3064.87 4833.24L4121.82 5425.59C4142.62 5437.25 4136.29 5468.77 4112.79 5470.47L2919.34 5557.11C2905.74 5558.1 2895.48 5569.64 2895.95 5583.42L2939.14 6845.45C2939.97 6869.78 2908.57 6879.12 2895.43 6858.46L2231.1 5814.38C2223.24 5802.01 2206.98 5798.36 2195.04 5806.27L1186.47 6474.43C1166.52 6487.65 1141.43 6465.61 1151.55 6443.75L1676.53 5309.39C1682.26 5297 1677.33 5282.05 1665.29 5275.3L608.34 4682.95Z" stroke="#003459" stroke-width="2"/>
<path opacity="0.137931" d="M652.013 4592.77C631.822 4579.98 639.727 4548.79 663.262 4548.39L1842.84 4528.19C1856.47 4527.96 1867.29 4516.97 1867.5 4503.15L1886.58 3257.84C1886.95 3233.48 1918.71 3225.83 1930.81 3247.18L2534.2 4311.88C2541.43 4324.64 2557.42 4329.17 2569.72 4321.94L3595.8 3718.84C3616.38 3706.75 3640.27 3730.17 3629.07 3751.45L3056.64 4840.01C3050.29 4852.09 3054.47 4867.33 3066.16 4874.74L4078.15 5515.77C4098.34 5528.56 4090.43 5559.75 4066.9 5560.15L2887.32 5580.36C2873.69 5580.59 2862.87 5591.58 2862.66 5605.4L2843.58 6850.71C2843.21 6875.06 2811.45 6882.71 2799.35 6861.36L2195.96 5796.66C2188.73 5783.9 2172.74 5779.37 2160.44 5786.6L1134.36 6389.7C1113.78 6401.79 1089.89 6378.38 1101.09 6357.09L1673.52 5268.53C1679.87 5256.45 1675.69 5241.22 1664 5233.81L652.013 4592.77Z" stroke="#003459" stroke-width="2"/>
<path opacity="0.172414" d="M699.755 4506.41C680.234 4492.53 689.699 4461.73 713.209 4462.63L1875.62 4507.09C1889.23 4507.62 1900.59 4497.2 1901.49 4483.38L1981.07 3258.18C1982.65 3233.86 2014.68 3227.9 2025.7 3249.88L2567.97 4331.39C2574.55 4344.5 2590.22 4349.89 2602.83 4343.37L3642.83 3805.39C3663.97 3794.46 3686.57 3819.18 3674.32 3839.84L3057.53 4880.49C3050.57 4892.24 3053.97 4907.72 3065.28 4915.76L4030.4 5602.14C4049.92 5616.02 4040.46 5646.81 4016.95 5645.92L2854.54 5601.45C2840.92 5600.93 2829.56 5611.35 2828.67 5625.17L2749.09 6850.37C2747.51 6874.69 2715.48 6880.65 2704.46 6858.67L2162.18 5777.15C2155.61 5764.05 2139.93 5758.66 2127.33 5765.18L1087.33 6303.16C1066.19 6314.09 1043.59 6289.37 1055.83 6268.71L1672.63 5228.06C1679.59 5216.31 1676.19 5200.83 1664.88 5192.79L699.755 4506.41Z" stroke="#003459" stroke-width="2"/>
<path opacity="0.206897" d="M751.311 4424.06C732.515 4409.12 743.525 4378.8 766.946 4381L1909.04 4488.16C1922.61 4489.44 1934.48 4479.62 1936.07 4465.83L2074.2 3263.98C2076.98 3239.76 2109.19 3235.49 2119.11 3258.04L2600.3 4352.59C2606.19 4366.01 2621.51 4372.23 2634.38 4366.43L3684.73 3893.42C3706.37 3883.67 3727.61 3909.63 3714.34 3929.6L3056.33 4920.47C3048.78 4931.84 3051.39 4947.53 3062.28 4956.19L3978.85 5684.49C3997.65 5699.42 3986.64 5729.75 3963.22 5727.55L2821.12 5620.38C2807.55 5619.11 2795.68 5628.92 2794.09 5642.72L2655.96 6844.57C2653.18 6868.79 2620.97 6873.06 2611.06 6850.51L2129.87 5755.95C2123.97 5742.53 2108.66 5736.32 2095.78 5742.12L1045.43 6215.13C1023.79 6224.87 1002.55 6198.92 1015.82 6178.94L1673.83 5188.08C1681.38 5176.71 1678.77 5161.01 1667.88 5152.36L751.311 4424.06Z" stroke="#003459" stroke-width="2"/>
<path opacity="0.241379" d="M806.407 4345.9C788.388 4329.95 800.929 4300.17 824.194 4303.66L1942.97 4471.41C1956.45 4473.43 1968.82 4464.24 1971.09 4450.51L2165.69 3275.1C2169.67 3251.03 2201.98 3248.45 2210.75 3271.5L2631.08 4375.37C2636.29 4389.06 2651.19 4396.07 2664.3 4391.01L3721.49 3982.61C3743.56 3974.09 3763.36 4001.19 3749.11 4020.43L3053.1 4959.82C3044.97 4970.8 3046.79 4986.66 3057.23 4995.9L3923.75 5762.65C3941.77 5778.59 3929.23 5808.37 3905.96 5804.88L2787.19 5637.14C2773.7 5635.12 2761.34 5644.3 2759.07 5658.04L2564.47 6833.45C2560.48 6857.52 2528.18 6860.1 2519.4 6837.05L2099.07 5733.17C2093.86 5719.49 2078.97 5712.47 2065.86 5717.54L1008.67 6125.93C986.597 6134.46 966.794 6107.35 981.046 6088.12L1677.05 5148.72C1685.18 5137.75 1683.37 5121.89 1672.93 5112.65L806.407 4345.9Z" stroke="#003459" stroke-width="2"/>
<path opacity="0.275862" d="M864.777 4272.1C847.584 4255.19 861.637 4226.03 884.681 4230.8L1977.3 4456.85C1990.66 4459.61 2003.48 4451.07 2006.44 4437.43L2255.28 3291.37C2260.46 3267.52 2292.77 3266.62 2300.39 3290.1L2660.27 4399.63C2664.79 4413.54 2679.23 4421.32 2692.52 4417L3753.1 4072.65C3775.55 4065.37 3793.85 4093.54 3778.64 4111.98L3047.91 4998.45C3039.21 5009 3040.21 5024.99 3050.18 5034.79L3865.38 5836.46C3882.57 5853.37 3868.52 5882.52 3845.48 5877.76L2752.86 5651.71C2739.5 5648.95 2726.67 5657.49 2723.71 5671.13L2474.88 6817.19C2469.7 6841.04 2437.39 6841.94 2429.77 6818.46L2069.88 5708.93C2065.37 5695.02 2050.93 5687.24 2037.63 5691.56L977.06 6035.91C954.611 6043.19 936.312 6015.02 951.515 5996.58L1682.25 5110.11C1690.94 5099.56 1689.94 5083.57 1679.98 5073.77L864.777 4272.1Z" stroke="#003459" stroke-width="2"/>
<path opacity="0.310345" d="M926.136 4202.79C909.816 4184.97 925.358 4156.51 948.118 4162.54L2011.9 4444.45C2025.1 4447.95 2038.36 4440.07 2042 4426.57L2342.71 3312.59C2349.07 3289.03 2381.31 3289.78 2387.75 3313.64L2687.81 4425.23C2691.61 4439.32 2705.55 4447.83 2719 4444.27L3779.58 4163.2C3802.34 4157.17 3819.08 4186.32 3802.96 4203.92L3040.8 5036.22C3031.56 5046.31 3031.74 5062.39 3041.2 5072.73L3804.02 5905.76C3820.34 5923.58 3804.8 5952.04 3782.04 5946.01L2718.26 5664.1C2705.06 5660.6 2691.8 5668.48 2688.15 5681.98L2387.45 6795.95C2381.09 6819.51 2348.85 6818.76 2342.41 6794.91L2042.35 5683.32C2038.55 5669.23 2024.61 5660.72 2011.16 5664.28L950.578 5945.34C927.816 5951.38 911.082 5922.23 927.2 5904.63L1689.35 5072.32C1698.6 5062.23 1698.42 5046.16 1688.95 5035.82L926.136 4202.79Z" stroke="#003459" stroke-width="2"/>
<path opacity="0.344828" d="M990.199 4138.11C974.795 4119.42 991.801 4091.74 1014.21 4099.02L2046.65 4434.23C2059.66 4438.45 2073.32 4431.26 2077.64 4417.92L2427.73 3338.6C2435.26 3315.39 2467.35 3317.78 2472.6 3341.94L2713.63 4452.07C2716.72 4466.3 2730.12 4475.5 2743.67 4472.7L3800.97 4253.96C3823.98 4249.2 3839.09 4279.22 3822.1 4295.93L3031.86 5073.06C3022.09 5082.66 3021.44 5098.78 3030.38 5109.62L3739.96 5970.44C3755.36 5989.12 3738.36 6016.81 3715.95 6009.53L2683.51 5674.32C2670.5 5670.1 2656.84 5677.29 2652.52 5690.63L2302.43 6769.95C2294.9 6793.16 2262.81 6790.77 2257.56 6766.61L2016.53 5656.48C2013.44 5642.25 2000.04 5633.05 1986.48 5635.85L929.191 5854.59C906.18 5859.35 891.064 5829.32 908.057 5812.61L1698.3 5035.49C1708.07 5025.88 1708.72 5009.77 1699.78 4998.92L990.199 4138.11Z" stroke="#003459" stroke-width="2"/>
<path opacity="0.37931" d="M1056.67 4078.16C1042.23 4058.66 1060.67 4031.83 1082.67 4040.33L2081.43 4426.15C2094.2 4431.09 2108.24 4424.61 2113.24 4411.47L2510.12 3369.17C2518.8 3346.38 2550.67 3350.38 2554.71 3374.78L2737.69 4480.03C2740.06 4494.35 2752.89 4504.21 2766.51 4502.17L3817.31 4344.61C3840.51 4341.13 3853.96 4371.93 3836.13 4387.71L3021.15 5108.85C3010.87 5117.94 3009.38 5134.06 3017.77 5145.38L3673.48 6030.39C3687.93 6049.88 3669.49 6076.72 3647.49 6068.22L2648.72 5682.39C2635.95 5677.46 2621.92 5683.94 2616.91 5697.08L2220.03 6739.37C2211.35 6762.17 2179.49 6758.16 2175.45 6733.77L1992.47 5628.52C1990.09 5614.2 1977.26 5604.34 1963.64 5606.38L912.844 5763.93C889.649 5767.41 876.199 5736.61 894.024 5720.84L1709.01 4999.69C1719.28 4990.6 1720.77 4974.49 1712.39 4963.17L1056.67 4078.16Z" stroke="#003459" stroke-width="2"/>
<path opacity="0.413793" d="M1125.27 4023.02C1111.82 4002.77 1131.66 3976.87 1153.19 3986.57L2116.13 4420.21C2128.64 4425.84 2143.01 4420.09 2148.69 4407.19L2589.67 3404.1C2599.48 3381.77 2631.04 3387.37 2633.87 3411.94L2759.95 4508.98C2761.61 4523.36 2773.84 4533.83 2787.48 4532.55L3828.68 4434.85C3852 4432.66 3863.74 4464.14 3845.13 4478.93L3008.75 5143.51C2997.99 5152.06 2995.66 5168.13 3003.47 5179.89L3604.89 6085.53C3618.34 6105.78 3598.5 6131.68 3576.96 6121.98L2614.02 5688.34C2601.52 5682.71 2587.14 5688.46 2581.47 5701.36L2140.49 6704.45C2130.67 6726.77 2099.11 6721.17 2096.29 6696.61L1970.2 5599.57C1968.55 5585.19 1956.32 5574.72 1942.67 5576L901.474 5673.7C878.159 5675.88 866.415 5644.41 885.027 5629.62L1721.4 4965.04C1732.16 4956.49 1734.49 4940.42 1726.68 4928.66L1125.27 4023.02Z" stroke="#003459" stroke-width="2"/>
<path opacity="0.448276" d="M1195.69 3972.76C1183.28 3951.81 1204.48 3926.92 1225.48 3937.79L2150.64 4416.36C2162.84 4422.67 2177.53 4417.67 2183.86 4405.04L2666.16 3443.14C2677.09 3421.35 2708.28 3428.52 2709.88 3453.19L2780.39 4538.81C2781.33 4553.19 2792.93 4564.24 2806.57 4563.72L3835.16 4524.38C3858.53 4523.48 3868.54 4555.53 3849.19 4569.3L2994.75 5176.95C2983.54 5184.93 2980.36 5200.9 2987.58 5213.07L3534.47 6135.79C3546.89 6156.74 3525.69 6181.63 3504.68 6170.76L2579.53 5692.19C2567.32 5685.88 2552.63 5690.88 2546.3 5703.51L2064 6665.41C2053.08 6687.2 2021.88 6680.03 2020.28 6655.36L1949.77 5569.74C1948.84 5555.36 1937.23 5544.31 1923.6 5544.83L895 5584.17C871.629 5585.06 861.624 5553.02 880.977 5539.25L1735.41 4931.6C1746.63 4923.62 1749.8 4907.65 1742.59 4895.48L1195.69 3972.76Z" stroke="#003459" stroke-width="2"/>
<path opacity="0.482759" d="M1267.64 3927.43C1256.29 3905.84 1278.81 3882.03 1299.23 3894.04L2184.82 4414.56C2196.69 4421.54 2211.66 4417.3 2218.64 4404.98L2739.42 3486.05C2751.42 3464.87 2782.18 3473.58 2782.56 3498.28L2798.97 4569.38C2799.19 4583.74 2810.15 4595.32 2823.73 4595.55L3836.85 4612.9C3860.21 4613.3 3868.45 4645.82 3848.41 4658.51L2979.23 5209.09C2967.57 5216.47 2963.56 5232.29 2970.16 5244.84L3462.51 6181.12C3473.87 6202.71 3451.35 6226.51 3430.93 6214.51L2545.33 5693.99C2533.46 5687.01 2518.5 5691.25 2511.52 5703.57L1990.74 6622.49C1978.73 6643.68 1947.98 6634.97 1947.6 6610.27L1931.19 5539.17C1930.97 5524.81 1920.01 5513.23 1906.43 5513L893.308 5495.65C869.946 5495.25 861.705 5462.73 881.748 5450.03L1750.93 4899.46C1762.58 4892.08 1766.59 4876.25 1759.99 4863.7L1267.64 3927.43Z" stroke="#003459" stroke-width="2"/>
<path opacity="0.517241" d="M1340.84 3887.05C1330.58 3864.88 1354.36 3842.24 1374.14 3855.34L2218.6 4414.77C2230.11 4422.4 2245.31 4418.94 2252.93 4406.97L2809.26 3532.6C2822.33 3512.07 2852.58 3522.3 2851.74 3546.96L2815.68 4600.58C2815.19 4614.86 2825.48 4626.94 2838.97 4627.92L3833.86 4700.14C3857.15 4701.84 3863.61 4734.71 3842.93 4746.3L2962.27 5239.86C2950.22 5246.61 2945.37 5262.24 2951.34 5275.14L3389.32 6221.51C3399.58 6243.67 3375.8 6266.31 3356.02 6253.21L2511.56 5693.78C2500.06 5686.15 2484.85 5689.61 2477.23 5701.58L1920.9 6575.95C1907.83 6596.48 1877.58 6586.25 1878.42 6561.59L1914.48 5507.98C1914.97 5493.69 1904.68 5481.61 1891.19 5480.63L896.299 5408.41C873.009 5406.72 866.551 5373.84 887.231 5362.25L1767.89 4868.69C1779.95 4861.94 1784.79 4846.31 1778.82 4833.41L1340.84 3887.05Z" stroke="#003459" stroke-width="2"/>
<path opacity="0.551724" d="M1414.98 3851.62C1405.84 3828.93 1430.83 3807.53 1449.92 3821.7L2251.86 4416.94C2262.96 4425.19 2278.38 4422.53 2286.61 4410.94L2875.55 3582.51C2889.63 3562.7 2919.32 3574.41 2917.26 3598.97L2830.51 4632.27C2829.32 4646.45 2838.92 4658.98 2852.29 4660.7L3826.33 4785.83C3849.48 4788.8 3854.15 4821.94 3832.88 4832.39L2943.98 5269.17C2931.55 5275.28 2925.88 5290.67 2931.2 5303.87L3315.18 6256.93C3324.32 6279.62 3299.33 6301.01 3280.24 6286.85L2478.31 5691.6C2467.2 5683.36 2451.78 5686.02 2443.55 5697.61L1854.62 6526.03C1840.53 6545.85 1810.84 6534.14 1812.91 6509.57L1899.65 5476.28C1900.84 5462.1 1891.24 5449.56 1877.87 5447.85L903.833 5322.72C880.68 5319.74 876.014 5286.61 897.278 5276.16L1786.18 4839.37C1798.62 4833.26 1804.28 4817.88 1798.96 4804.68L1414.98 3851.62Z" stroke="#003459" stroke-width="2"/>
<path opacity="0.586207" d="M1489.77 3821.14C1481.77 3798 1507.92 3777.91 1526.26 3793.11L2284.49 4421.02C2295.17 4429.86 2310.75 4428.01 2319.59 4416.85L2938.12 3635.53C2953.2 3616.49 2982.25 3629.66 2978.98 3654.05L2843.45 4664.34C2841.57 4678.38 2850.47 4691.33 2863.68 4693.77L3814.39 4869.7C3837.34 4873.95 3840.21 4907.23 3818.42 4916.5L2924.43 5296.99C2911.66 5302.43 2905.18 5317.52 2909.83 5330.99L3240.38 6287.41C3248.38 6310.55 3222.24 6330.63 3203.89 6315.44L2445.67 5687.53C2434.99 5678.69 2419.41 5680.54 2410.57 5691.7L1792.03 6473.02C1776.96 6492.06 1747.9 6478.89 1751.18 6454.5L1886.7 5444.21C1888.58 5430.17 1879.69 5417.22 1866.48 5414.78L915.765 5238.85C892.81 5234.6 889.942 5201.32 911.731 5192.04L1805.72 4811.56C1818.49 4806.12 1824.98 4791.03 1820.32 4777.55L1489.77 3821.14Z" stroke="#003459" stroke-width="2"/>
<path opacity="0.62069" d="M1564.94 3795.58C1558.1 3772.04 1585.34 3753.35 1602.89 3769.52L2316.41 4426.93C2326.63 4436.35 2342.34 4435.32 2351.76 4424.61L2996.88 3691.38C3012.9 3673.17 3041.26 3687.76 3036.79 3711.92L2854.52 4696.67C2851.96 4710.53 2860.14 4723.85 2873.16 4727.01L3798.21 4951.5C3820.91 4957.01 3821.98 4990.34 3799.72 4998.41L2903.75 5323.24C2890.67 5327.99 2883.39 5342.74 2887.37 5356.45L3165.22 6312.97C3172.06 6336.5 3144.82 6355.2 3127.27 6339.03L2413.75 5681.62C2403.53 5672.2 2387.82 5673.23 2378.4 5683.93L1733.29 6417.17C1717.26 6435.38 1688.9 6420.79 1693.37 6396.63L1875.64 5411.88C1878.2 5398.02 1870.02 5384.7 1857 5381.54L931.95 5157.05C909.255 5151.54 908.181 5118.21 930.437 5110.14L1826.41 4785.31C1839.5 4780.56 1846.77 4765.81 1842.79 4752.1L1564.94 3795.58Z" stroke="#003459" stroke-width="2"/>
<path opacity="0.655172" d="M1640.2 3774.89C1634.54 3751.02 1662.79 3733.78 1679.51 3750.89L2347.52 4434.61C2357.26 4444.58 2373.05 4444.39 2383.03 4434.17L3051.69 3749.78C3068.63 3732.45 3096.24 3748.44 3090.58 3772.3L2863.72 4729.13C2860.49 4742.77 2867.94 4756.43 2880.74 4760.29L3777.95 5031C3800.33 5037.75 3799.62 5071.02 3776.95 5077.86L2882.01 5347.88C2868.65 5351.91 2860.59 5366.28 2863.89 5380.18L3089.95 6333.66C3095.61 6357.52 3067.36 6374.76 3050.64 6357.65L2382.64 5673.94C2372.9 5663.96 2357.1 5664.16 2347.12 5674.37L1678.46 6358.76C1661.53 6376.09 1633.92 6360.11 1639.58 6336.25L1866.43 5379.42C1869.67 5365.77 1862.21 5352.11 1849.42 5348.25L952.201 5077.55C929.828 5070.8 930.537 5037.52 953.2 5030.68L1848.15 4760.66C1861.5 4756.63 1869.56 4742.27 1866.26 4728.36L1640.2 3774.89Z" stroke="#003459" stroke-width="2"/>
<path opacity="0.689655" d="M1715.28 3758.95C1710.82 3734.83 1740.01 3719.1 1755.84 3737.1L2377.74 4443.94C2386.97 4454.44 2402.81 4455.08 2413.32 4445.4L3102.5 3810.41C3120.29 3794.02 3147.09 3811.37 3140.26 3834.86L2871.07 4761.56C2867.18 4774.96 2873.91 4788.92 2886.45 4793.46L3753.81 5107.92C3775.8 5115.9 3773.32 5149.01 3750.32 5154.6L2859.33 5370.82C2845.73 5374.12 2836.92 5388.05 2839.52 5402.12L3014.87 6349.5C3019.34 6373.62 2990.15 6389.35 2974.31 6371.35L2352.42 5664.51C2343.19 5654.02 2327.35 5653.37 2316.84 5663.05L1627.66 6298.04C1609.87 6314.43 1583.07 6297.09 1589.9 6273.59L1859.08 5346.89C1862.98 5333.49 1856.25 5319.53 1843.71 5314.99L976.351 5000.53C954.359 4992.55 956.835 4959.44 979.841 4953.86L1870.83 4737.63C1884.42 4734.33 1893.24 4720.4 1890.64 4706.34L1715.28 3758.95Z" stroke="#003459" stroke-width="2"/>
<path opacity="0.724138" d="M1789.92 3747.79C1786.66 3723.47 1816.7 3709.32 1831.62 3728.16L2406.98 4454.94C2415.68 4465.93 2431.52 4467.43 2442.53 4458.3L3149.2 3873.08C3167.81 3857.67 3193.74 3876.34 3185.76 3899.41L2876.6 4793.94C2872.07 4807.06 2878.06 4821.28 2890.31 4826.5L3725.96 5182.16C3747.51 5191.33 3743.29 5224.19 3720.01 5228.5L2835.79 5392.12C2822.01 5394.67 2812.46 5408.12 2814.36 5422.31L2940.24 6360.66C2943.5 6384.99 2913.45 6399.13 2898.54 6380.29L2323.18 5653.51C2314.48 5642.52 2298.64 5641.03 2287.62 5650.15L1580.95 6235.37C1562.34 6250.78 1536.42 6232.11 1544.39 6209.04L1853.56 5314.51C1858.09 5301.39 1852.1 5287.17 1839.84 5281.95L1004.2 4926.3C982.643 4917.12 986.864 4884.26 1010.15 4879.95L1894.36 4716.33C1908.15 4713.78 1917.7 4700.33 1915.8 4686.15L1789.92 3747.79Z" stroke="#003459" stroke-width="2"/>
<path opacity="0.758621" d="M1863.85 3741.26C1861.8 3716.8 1892.62 3704.29 1906.57 3723.92L2435.17 4467.48C2443.31 4478.93 2459.11 4481.28 2470.6 4472.75L3191.77 3937.46C3211.14 3923.08 3236.13 3943.04 3227.03 3965.63L2880.34 4826.11C2875.18 4838.93 2880.43 4853.38 2892.37 4859.25L3694.62 5253.46C3715.68 5263.8 3709.74 5296.32 3686.24 5299.34L2811.52 5411.71C2797.58 5413.5 2787.33 5426.42 2788.53 5440.68L2866.31 6367.21C2868.36 6391.66 2837.54 6404.17 2823.59 6384.54L2294.99 5640.98C2286.85 5629.53 2271.05 5627.18 2259.56 5635.71L1538.4 6171C1519.02 6185.38 1494.03 6165.42 1503.13 6142.83L1849.82 5282.35C1854.98 5269.54 1849.74 5255.08 1837.79 5249.21L1035.54 4855C1014.48 4844.66 1020.42 4812.14 1043.92 4809.13L1918.64 4696.76C1932.58 4694.96 1942.83 4682.05 1941.64 4667.78L1863.85 3741.26Z" stroke="#003459" stroke-width="2"/>
<path opacity="0.793103" d="M1936.83 3739.22C1935.99 3714.7 1967.49 3703.88 1980.44 3724.24L2462.24 4481.47C2469.8 4493.35 2485.51 4496.55 2497.44 4488.65L3230.14 4003.25C3250.22 3989.95 3274.22 4011.16 3264.02 4033.2L2882.32 4857.95C2876.55 4870.43 2881.05 4885.08 2892.66 4891.58L3660 5321.63C3680.5 5333.12 3672.88 5365.19 3649.24 5366.91L2786.6 5429.53C2772.55 5430.55 2761.63 5442.9 2762.12 5457.21L2793.33 6369.22C2794.17 6393.75 2762.67 6404.56 2749.72 6384.2L2267.92 5626.98C2260.36 5615.1 2244.66 5611.89 2232.72 5619.8L1500.02 6105.2C1479.94 6118.5 1455.94 6097.29 1466.14 6075.25L1847.84 5250.49C1853.61 5238.02 1849.11 5223.37 1837.5 5216.86L1070.16 4786.82C1049.66 4775.33 1057.28 4743.25 1080.92 4741.54L1943.56 4678.91C1957.61 4677.89 1968.53 4665.54 1968.04 4651.23L1936.83 3739.22Z" stroke="#003459" stroke-width="2"/>
<path opacity="0.827586" d="M2008.61 3741.59C2008.99 3717.06 2041.07 3707.98 2052.99 3729.02L2488.12 4496.82C2495.08 4509.11 2510.65 4513.16 2522.99 4505.91L3264.31 4070.18C3285.04 4058 3307.99 4080.42 3296.71 4101.85L2882.59 4889.38C2876.22 4901.49 2879.97 4916.31 2891.21 4923.43L3622.31 5386.53C3642.21 5399.14 3632.94 5430.68 3609.22 5431.09L2761.15 5445.61C2747.03 5445.85 2735.47 5457.59 2735.25 5471.91L2721.54 6366.87C2721.16 6391.39 2689.09 6400.48 2677.16 6379.44L2242.03 5611.63C2235.07 5599.35 2219.51 5595.29 2207.17 5602.55L1465.85 6038.27C1445.11 6050.46 1422.17 6028.04 1433.44 6006.6L1847.57 5219.07C1853.93 5206.96 1850.18 5192.15 1838.94 5185.03L1107.84 4721.92C1087.95 4709.32 1097.21 4677.77 1120.93 4677.37L1969 4662.84C1983.12 4662.6 1994.68 4650.86 1994.9 4636.54L2008.61 3741.59Z" stroke="#003459" stroke-width="2"/>
<path opacity="0.862069" d="M2078.98 3748.19C2080.57 3723.73 2113.13 3716.42 2123.99 3738.08L2512.76 4513.45C2519.1 4526.1 2534.48 4531 2547.19 4524.42L3294.27 4137.97C3315.59 4126.94 3337.43 4150.52 3325.12 4171.3L2881.2 4920.28C2874.25 4931.99 2877.26 4946.94 2888.11 4954.66L3581.8 5448C3601.04 5461.68 3590.17 5492.62 3566.44 5491.71L2735.27 5459.92C2721.13 5459.38 2708.97 5470.47 2708.04 5484.75L2651.18 6360.26C2649.59 6384.72 2617.03 6392.04 2606.17 6370.37L2217.4 5595.01C2211.06 5582.36 2195.68 5577.46 2182.97 5584.03L1435.89 5970.49C1414.56 5981.52 1392.73 5957.93 1405.04 5937.16L1848.96 5188.18C1855.91 5176.46 1852.9 5161.51 1842.05 5153.79L1148.36 4660.46C1129.12 4646.77 1139.99 4615.84 1163.72 4616.75L1994.89 4648.54C2009.03 4649.08 2021.19 4637.99 2022.12 4623.7L2078.98 3748.19Z" stroke="#003459" stroke-width="2"/>
<path opacity="0.896552" d="M2147.7 3758.89C2150.5 3734.56 2183.43 3729.05 2193.2 3751.27L2536.1 4531.24C2541.8 4544.23 2556.94 4549.97 2569.98 4544.09L3320.02 4206.33C3341.88 4196.48 3362.55 4221.19 3349.23 4241.24L2878.19 4950.55C2870.69 4961.85 2872.94 4976.9 2883.38 4985.19L3538.68 5505.9C3557.21 5520.62 3544.79 5550.87 3521.12 5548.65L2709.06 5472.45C2694.94 5471.12 2682.22 5481.53 2680.59 5495.74L2582.46 6349.56C2579.66 6373.89 2546.72 6379.41 2536.95 6357.18L2194.06 5577.21C2188.35 5564.23 2173.21 5558.49 2160.17 5564.36L1410.13 5902.13C1388.27 5911.97 1367.61 5887.27 1380.93 5867.21L1851.96 5157.9C1859.47 5146.61 1857.21 5131.55 1846.77 5123.26L1191.47 4602.56C1172.94 4587.83 1185.37 4557.59 1209.04 4559.81L2021.09 4636C2035.21 4637.33 2047.94 4626.92 2049.57 4612.71L2147.7 3758.89Z" stroke="#003459" stroke-width="2"/>
<path opacity="0.931035" d="M2214.58 3773.52C2218.57 3749.38 2251.78 3745.69 2260.43 3768.42L2558.09 4550.12C2563.14 4563.4 2578 4569.97 2591.33 4564.82L3341.61 4274.98C3363.94 4266.36 3383.37 4292.13 3369.08 4311.42L2873.64 4980.11C2865.6 4990.97 2867.1 5006.09 2877.11 5014.94L3493.22 5560.11C3510.99 5575.84 3497.05 5605.33 3473.52 5601.8L2682.63 5483.21C2668.58 5481.11 2655.34 5490.79 2653 5504.89L2515.58 6334.94C2511.59 6359.08 2478.38 6362.77 2469.73 6340.04L2172.07 5558.34C2167.02 5545.06 2152.16 5538.49 2138.83 5543.64L1388.55 5833.48C1366.22 5842.1 1346.79 5816.32 1361.08 5797.04L1856.52 5128.35C1864.56 5117.49 1863.06 5102.37 1853.05 5093.52L1236.94 4548.34C1219.17 4532.62 1233.1 4503.13 1256.64 4506.66L2047.53 4625.25C2061.58 4627.35 2074.82 4617.66 2077.16 4603.56L2214.58 3773.52Z" stroke="#003459" stroke-width="2"/>
<path opacity="0.965517" d="M2279.41 3791.89C2284.59 3768.01 2317.96 3766.16 2325.48 3789.34L2578.69 4569.98C2583.08 4583.52 2597.6 4590.9 2611.18 4586.49L3359.07 4343.66C3381.8 4336.28 3399.95 4363.07 3384.72 4381.54L2867.61 5008.87C2859.04 5019.26 2859.8 5034.42 2869.34 5043.81L3445.65 5610.55C3462.61 5627.24 3447.22 5655.89 3423.88 5651.06L2656.08 5492.21C2642.14 5489.33 2628.42 5498.27 2625.39 5512.22L2450.76 6316.57C2445.57 6340.45 2412.2 6342.3 2404.68 6319.12L2151.48 5538.48C2147.08 5524.94 2132.56 5517.56 2118.98 5521.97L1371.09 5764.8C1348.36 5772.18 1330.21 5745.39 1345.44 5726.92L1862.55 5099.59C1871.12 5089.2 1870.37 5074.04 1860.82 5064.65L1284.52 4497.91C1267.55 4481.22 1282.94 4452.57 1306.28 4457.4L2074.09 4616.25C2088.02 4619.13 2101.74 4610.19 2104.77 4596.23L2279.41 3791.89Z" stroke="#003459" stroke-width="2"/>
<path d="M2342 3813.83C2348.36 3790.27 2381.79 3790.27 2388.15 3813.83L2597.86 4590.7C2601.57 4604.47 2615.71 4612.64 2629.5 4608.99L3372.46 4412.1C3395.53 4405.98 3412.32 4433.74 3396.21 4451.34L2860.15 5036.74C2851.08 5046.63 2851.08 5061.82 2860.15 5071.72L3396.21 5657.12C3412.32 5674.72 3395.53 5702.47 3372.46 5696.36L2629.5 5499.47C2615.71 5495.81 2601.57 5503.99 2597.86 5517.75L2388.15 6294.62C2381.79 6318.19 2348.36 6318.19 2342 6294.62L2132.3 5517.75C2128.58 5503.99 2114.44 5495.81 2100.66 5499.47L1357.69 5696.36C1334.63 5702.47 1317.83 5674.72 1333.95 5657.12L1870.01 5071.72C1879.07 5061.82 1879.07 5046.63 1870.01 5036.74L1333.95 4451.34C1317.83 4433.74 1334.63 4405.98 1357.69 4412.1L2100.66 4608.99C2114.44 4612.64 2128.58 4604.47 2132.3 4590.7L2342 3813.83Z" stroke="#003459" stroke-width="2"/>
</g>
<g opacity="0.1">
<path opacity="0.0344828" d="M2573.79 -1032.09C2609.69 -1028.2 2642.44 -1008.04 2671.89 -973.065C2701.35 -938.079 2727.48 -888.31 2750.14 -825.322C2795.45 -699.347 2826.78 -520.697 2843.15 -302.271C2875.87 134.564 2848.7 730.259 2753.85 1381.26C2659.01 2032.26 2514.45 2615.25 2357.43 3031.53C2278.92 3239.69 2197.31 3406.11 2117.27 3518.51C2077.25 3574.71 2037.65 3617.36 1999.07 3644.98C1960.5 3672.59 1922.99 3685.14 1887.09 3681.25C1851.19 3677.36 1818.44 3657.2 1788.99 3622.23C1759.53 3587.24 1733.4 3537.47 1710.74 3474.48C1665.43 3348.51 1634.1 3169.86 1617.73 2951.43C1585.01 2514.6 1612.18 1918.9 1707.03 1267.9C1801.88 616.898 1946.43 33.914 2103.45 -382.374C2181.96 -590.525 2263.57 -756.944 2343.61 -869.345C2383.63 -925.546 2423.23 -968.198 2461.81 -995.815C2500.38 -1023.43 2537.89 -1035.97 2573.79 -1032.09Z" stroke="#003459" stroke-width="2"/>
<path opacity="0.0689655" d="M2785.4 -1012.36C2820.68 -1005.23 2851.47 -982.109 2877.74 -944.461C2904.02 -906.806 2925.75 -854.663 2942.91 -789.612C2977.24 -659.509 2993.27 -477.978 2991.09 -258.013C2986.72 181.901 2909.53 775.311 2760.55 1417.93C2611.56 2060.56 2418.99 2630.66 2228.11 3032.88C2132.66 3234.01 2037.66 3393.1 1948.78 3498.31C1904.34 3550.92 1861.46 3590 1820.85 3614.14C1780.25 3638.28 1741.98 3647.45 1706.7 3640.32C1671.41 3633.19 1640.62 3610.07 1614.35 3572.42C1588.07 3534.77 1566.34 3482.62 1549.18 3417.57C1514.85 3287.47 1498.82 3105.94 1501.01 2885.97C1505.37 2446.06 1582.56 1852.65 1731.55 1210.03C1880.54 567.404 2073.1 -2.69471 2263.99 -404.923C2359.43 -606.045 2454.43 -765.144 2543.31 -870.35C2587.76 -922.954 2630.64 -962.043 2671.24 -986.184C2711.84 -1010.32 2750.11 -1019.49 2785.4 -1012.36Z" stroke="#003459" stroke-width="2"/>
<path opacity="0.103448" d="M2992.91 -974.919C3027.31 -964.602 3055.9 -938.701 3078.79 -898.67C3101.69 -858.632 3118.85 -804.512 3130.4 -737.892C3153.49 -604.653 3154.08 -421.623 3133.37 -201.792C3091.94 237.853 2965.33 824.462 2763.33 1453.82C2561.33 2083.17 2322.22 2636.04 2098.93 3021.15C1987.28 3213.71 1879.61 3364.28 1782.56 3461.49C1734.03 3510.1 1688.19 3545.33 1645.87 3565.81C1603.56 3586.29 1564.82 3592 1530.42 3581.68C1496.01 3571.36 1467.42 3545.46 1444.53 3505.43C1421.63 3465.39 1404.47 3411.27 1392.93 3344.65C1369.84 3211.41 1369.24 3028.38 1389.96 2808.55C1431.38 2368.91 1557.99 1782.3 1759.99 1152.94C1961.99 523.591 2201.11 -29.282 2424.4 -414.391C2536.04 -606.952 2643.71 -757.519 2740.76 -854.731C2789.29 -903.337 2835.13 -938.565 2877.45 -959.047C2919.76 -979.525 2958.5 -985.236 2992.91 -974.919Z" stroke="#003459" stroke-width="2"/>
<path opacity="0.137931" d="M3194.85 -920.14C3228.11 -906.715 3254.3 -878.226 3273.63 -836.117C3292.97 -794 3305.43 -738.315 3311.27 -670.634C3322.94 -535.271 3308.1 -352.136 3269.01 -134.113C3190.85 301.917 3015.77 877.262 2762.3 1488.56C2508.84 2099.85 2224.99 2631.29 1970.99 2996.35C1843.99 3178.88 1724.48 3319.77 1619.99 3408.25C1567.75 3452.49 1519.3 3483.59 1475.59 3500.26C1431.88 3516.92 1392.97 3519.13 1359.71 3505.71C1326.45 3492.28 1300.26 3463.79 1280.93 3421.68C1261.59 3379.57 1249.13 3323.88 1243.29 3256.2C1231.62 3120.84 1246.46 2937.7 1285.55 2719.68C1363.71 2283.65 1538.79 1708.31 1792.26 1097.01C2045.72 485.718 2329.57 -45.723 2583.57 -410.781C2710.57 -593.316 2830.08 -734.206 2934.57 -822.682C2986.81 -866.921 3035.26 -898.021 3078.97 -914.687C3122.68 -931.351 3161.59 -933.565 3194.85 -920.14Z" stroke="#003459" stroke-width="2"/>
<path opacity="0.172414" d="M3389.81 -848.525C3421.67 -832.094 3445.24 -801.235 3460.88 -757.368C3476.51 -713.493 3484.18 -656.667 3484.27 -588.439C3484.43 -451.984 3454.26 -270.137 3397.1 -55.5805C3282.79 373.516 3060.59 933.217 2757.58 1521.8C2454.56 2110.38 2128.15 2616.34 1845.37 2958.57C1703.98 3129.69 1573.53 3259.83 1462.41 3338.9C1406.85 3378.43 1356.16 3405.17 1311.39 3417.89C1266.62 3430.62 1227.83 3429.32 1195.97 3412.89C1164.1 3396.45 1140.53 3365.6 1124.9 3321.73C1109.26 3277.85 1101.59 3221.03 1101.51 3152.8C1101.34 3016.34 1131.51 2834.5 1188.67 2619.94C1302.99 2190.84 1525.19 1631.14 1828.2 1042.56C2131.21 453.98 2457.63 -51.9837 2740.4 -394.212C2881.8 -565.332 3012.24 -695.472 3123.36 -774.54C3178.93 -814.074 3229.61 -840.809 3274.39 -853.533C3319.15 -866.255 3357.94 -864.956 3389.81 -848.525Z" stroke="#003459" stroke-width="2"/>
<path opacity="0.206897" d="M3576.42 -760.686C3606.65 -741.374 3627.43 -708.38 3639.25 -663.088C3651.06 -617.789 3653.88 -560.255 3648.21 -491.999C3636.87 -355.49 3591.6 -176.315 3516.8 33.1416C3367.21 452.039 3099.57 991.836 2749.32 1553.23C2399.07 2114.62 2032.57 2591.25 1723.17 2908.05C1568.47 3066.45 1428.08 3184.85 1311.17 3253.91C1252.71 3288.44 1200.17 3310.6 1154.68 3319.29C1109.19 3327.97 1070.82 3323.17 1040.59 3303.86C1010.36 3284.55 989.58 3251.55 977.769 3206.26C965.956 3160.96 963.139 3103.43 968.809 3035.17C980.149 2898.66 1025.41 2719.49 1100.21 2510.03C1249.8 2091.13 1517.45 1551.34 1867.69 989.945C2217.94 428.555 2584.44 -48.0812 2893.84 -364.875C3048.55 -523.279 3188.94 -641.677 3305.85 -710.735C3364.31 -745.264 3416.85 -767.43 3462.34 -776.115C3507.83 -784.8 3546.2 -779.998 3576.42 -760.686Z" stroke="#003459" stroke-width="2"/>
<path opacity="0.241379" d="M3753.39 -657.394C3781.75 -635.349 3799.59 -600.47 3807.48 -554.099C3815.38 -507.721 3813.33 -449.916 3801.95 -382.153C3779.19 -246.628 3719.17 -71.4885 3627.3 131.274C3443.57 536.784 3132.53 1052.57 2737.71 1582.5C2342.89 2112.42 1939.09 2556.1 1605.43 2845.05C1438.59 2989.53 1289.32 3095.29 1167.51 3153.81C1106.6 3183.07 1052.61 3200.5 1006.74 3205.08C960.881 3209.66 923.216 3201.39 894.858 3179.35C866.501 3157.3 848.663 3122.42 840.764 3076.05C832.864 3029.67 834.92 2971.87 846.301 2904.1C869.061 2768.58 929.075 2593.44 1020.94 2390.68C1204.68 1985.17 1515.72 1469.38 1910.54 939.457C2305.36 409.53 2709.15 -34.1501 3042.82 -323.099C3209.66 -467.579 3358.93 -573.336 3480.74 -631.858C3541.65 -661.119 3595.64 -678.548 3641.51 -683.128C3687.37 -687.708 3725.03 -679.439 3753.39 -657.394Z" stroke="#003459" stroke-width="2"/>
<path opacity="0.275862" d="M3919.47 -539.484C3945.74 -514.873 3960.5 -478.374 3964.42 -431.277C3968.35 -384.172 3961.43 -326.536 3944.43 -259.782C3910.42 -126.273 3836.11 43.4976 3727.87 238.023C3511.4 627.058 3159.32 1114.91 2722.94 1609.34C2286.56 2103.76 1848.54 2511.11 1493.14 2770.02C1315.43 2899.48 1158.43 2991.79 1032.64 3039.33C969.747 3063.1 914.709 3075.65 868.818 3076.09C822.935 3076.54 786.265 3064.86 759.991 3040.25C733.717 3015.64 718.961 2979.14 715.035 2932.05C711.107 2884.94 718.022 2827.31 735.026 2760.55C769.034 2627.04 843.342 2457.27 951.583 2262.75C1168.06 1873.71 1520.14 1385.86 1956.52 891.434C2392.9 397.005 2830.92 -10.3438 3186.32 -269.249C3364.03 -398.706 3521.03 -491.016 3646.82 -538.556C3709.71 -562.327 3764.75 -574.885 3810.64 -575.325C3856.52 -575.766 3893.19 -564.095 3919.47 -539.484Z" stroke="#003459" stroke-width="2"/>
<path opacity="0.310345" d="M4073.53 -407.961C4097.52 -380.972 4109.08 -343.131 4109 -295.666C4108.93 -248.193 4097.21 -191.165 4074.71 -125.927C4029.71 4.54911 3941.68 167.659 3817.89 352.467C3570.32 722.068 3179.89 1178.27 2705.26 1633.43C2230.63 2088.6 1761.72 2456.52 1387.3 2683.41C1200.08 2796.86 1036.53 2875.02 907.732 2911.22C843.33 2929.31 787.667 2936.91 742.101 2933.2C696.543 2929.5 661.148 2914.52 637.157 2887.53C613.166 2860.54 601.604 2822.7 601.68 2775.23C601.755 2727.76 613.475 2670.73 635.973 2605.49C680.969 2475.02 769.006 2311.91 892.794 2127.1C1140.36 1757.5 1530.8 1301.3 2005.42 846.132C2480.05 390.963 2948.96 23.0476 3323.38 -203.842C3510.6 -317.292 3674.15 -395.452 3802.95 -431.649C3867.35 -449.748 3923.02 -457.34 3968.58 -453.638C4014.14 -449.935 4049.54 -434.95 4073.53 -407.961Z" stroke="#003459" stroke-width="2"/>
<path opacity="0.344828" d="M4214.52 -263.891C4236.04 -234.729 4244.32 -195.833 4240.24 -148.362C4236.17 -100.882 4219.73 -44.8966 4191.91 18.3292C4136.27 144.779 4035.17 299.987 3896.78 473.67C3620 821.024 3194.18 1242.1 2684.92 1654.54C2175.66 2066.99 1679.43 2392.67 1288.83 2585.82C1093.53 2682.4 924.68 2745.81 793.843 2770.39C728.424 2782.68 672.56 2785.25 627.666 2777.43C582.78 2769.62 548.928 2751.43 527.403 2722.27C505.877 2693.11 497.597 2654.21 501.674 2606.74C505.752 2559.26 522.187 2503.27 550.009 2440.05C605.651 2313.6 706.746 2158.39 845.14 1984.71C1121.92 1637.35 1547.74 1216.28 2056.99 803.833C2566.25 391.389 3062.48 65.7056 3453.08 -127.443C3648.39 -224.021 3817.24 -287.437 3948.07 -312.015C4013.49 -324.304 4069.36 -326.873 4114.25 -319.055C4159.14 -311.238 4192.99 -293.053 4214.52 -263.891Z" stroke="#003459" stroke-width="2"/>
<path opacity="0.37931" d="M4341.47 -108.469C4360.37 -77.3552 4365.31 -37.7014 4357.26 9.41544C4349.21 56.5401 4328.18 111.058 4295.25 171.79C4229.38 293.252 4116 439.376 3964.05 600.613C3660.18 923.075 3202.21 1305.82 2662.2 1672.4C2122.18 2038.99 1602.41 2319.96 1198.61 2477.89C996.698 2556.87 823.836 2605.06 691.96 2617.83C626.021 2624.21 570.381 2621.74 526.501 2609.87C482.628 2597.99 450.576 2576.75 431.68 2545.63C412.783 2514.52 407.848 2474.87 415.895 2427.75C423.944 2380.62 444.971 2326.11 477.904 2265.37C543.769 2143.91 657.153 1997.79 809.098 1836.55C1112.98 1514.09 1570.94 1131.34 2110.96 764.76C2650.97 398.178 3170.74 117.206 3574.55 -40.7301C3776.46 -119.701 3949.32 -167.891 4081.19 -180.663C4147.13 -187.049 4202.77 -184.575 4246.65 -172.701C4290.53 -160.83 4322.58 -139.583 4341.47 -108.469Z" stroke="#003459" stroke-width="2"/>
<path opacity="0.413793" d="M4453.56 57.0595C4469.68 89.8886 4471.23 129.999 4459.28 176.403C4447.32 222.814 4421.86 275.449 4384.07 333.224C4308.48 448.774 4183.67 584.702 4019.33 732.266C3690.66 1027.38 3204.04 1368.89 2637.38 1686.82C2070.72 2004.75 1531.35 2238.87 1117.42 2360.39C910.45 2421.16 734.889 2453.75 602.977 2454.62C537.02 2455.05 482.028 2447.56 439.496 2431.72C396.97 2415.88 366.963 2391.73 350.839 2358.91C334.715 2326.08 333.162 2285.97 345.119 2239.56C357.077 2193.15 382.534 2140.52 420.328 2082.74C495.915 1967.19 620.724 1831.26 785.066 1683.7C1113.74 1388.58 1600.35 1047.07 2167.02 729.146C2733.68 411.218 3273.04 177.096 3686.97 55.5732C3893.95 -5.19058 4069.51 -37.7864 4201.42 -38.6551C4267.38 -39.0893 4322.37 -31.5909 4364.9 -15.7521C4407.43 0.0839866 4437.43 24.2305 4453.56 57.0595Z" stroke="#003459" stroke-width="2"/>
<path opacity="0.448276" d="M4550.02 231.348C4563.25 265.643 4561.41 305.905 4545.63 351.242C4529.86 396.587 4500.16 446.938 4457.8 501.318C4373.06 610.075 4237.78 734.773 4062.29 867.54C3711.33 1133.07 3199.76 1430.73 2610.76 1697.59C2021.77 1964.44 1466.92 2149.93 1046.01 2234.12C835.55 2276.21 658.627 2292.97 527.683 2281.93C462.21 2276.4 408.284 2263.94 367.423 2244.26C326.568 2224.58 298.833 2197.71 285.605 2163.42C272.376 2129.12 274.217 2088.86 289.992 2043.52C305.77 1998.18 335.464 1947.83 377.831 1893.45C462.564 1784.69 597.849 1659.99 773.335 1527.23C1124.29 1261.7 1635.87 964.032 2224.86 697.177C2813.86 430.321 3368.7 244.831 3789.61 160.647C4000.08 118.553 4177 101.799 4307.94 112.84C4373.42 118.361 4427.34 130.827 4468.2 150.51C4509.06 170.19 4536.79 197.053 4550.02 231.348Z" stroke="#003459" stroke-width="2"/>
<path opacity="0.482759" d="M4630.25 412.991C4640.49 448.49 4635.26 488.599 4615.79 532.525C4596.31 576.458 4562.61 624.142 4515.99 674.711C4422.76 775.849 4278.03 888.367 4092.73 1005.33C3722.15 1239.24 3189.52 1490.8 2582.67 1704.56C1975.83 1918.31 1409.72 2053.75 985.035 2099.96C772.684 2123.06 595.745 2123.85 466.766 2100.98C402.275 2089.55 349.827 2072.21 310.947 2048.83C272.075 2025.46 246.823 1996.08 236.59 1960.58C226.357 1925.08 231.579 1884.97 251.052 1841.05C270.529 1797.11 304.234 1749.43 350.852 1698.86C444.086 1597.72 588.817 1485.2 774.112 1368.24C1144.69 1134.33 1677.32 882.767 2284.17 669.016C2891.02 455.264 3457.12 319.818 3881.81 273.613C4094.16 250.509 4271.1 249.725 4400.08 272.592C4464.57 284.025 4517.02 301.363 4555.89 324.742C4594.77 348.116 4620.02 377.491 4630.25 412.991Z" stroke="#003459" stroke-width="2"/>
<path opacity="0.517241" d="M4693.77 600.518C4700.93 636.954 4692.37 676.603 4669.34 718.783C4646.32 760.97 4608.86 805.624 4558.34 851.999C4457.32 944.747 4304.24 1044.23 4110.55 1144.49C3723.17 1345.01 3173.53 1548.56 2553.45 1707.58C1933.37 1866.6 1360.32 1950.97 935.09 1958.85C722.468 1962.78 546.859 1947.59 420.827 1913.07C357.809 1895.81 307.237 1873.74 270.636 1846.84C234.04 1819.95 211.465 1788.29 204.305 1751.85C197.146 1715.42 205.709 1675.77 228.732 1633.59C251.759 1591.4 289.219 1546.75 339.732 1500.37C440.758 1407.62 593.833 1308.14 787.528 1207.88C1174.9 1007.36 1724.54 803.812 2344.62 644.792C2964.7 485.771 3537.76 401.398 3962.99 393.524C4175.61 389.587 4351.22 404.778 4477.25 439.296C4540.27 456.556 4590.84 478.634 4627.44 505.529C4664.04 532.42 4686.61 564.083 4693.77 600.518Z" stroke="#003459" stroke-width="2"/>
<path opacity="0.551724" d="M4740.2 792.429C4744.23 829.522 4732.39 868.41 4705.99 908.523C4679.59 948.643 4638.66 989.928 4584.64 1031.75C4476.59 1115.41 4316.33 1201.1 4115.71 1283.9C3714.49 1449.5 3152.03 1603.48 2523.43 1706.56C1894.84 1809.64 1319.19 1842.29 896.659 1811.78C685.383 1796.52 512.442 1765.47 390.315 1719.56C329.251 1696.61 280.939 1669.96 246.895 1639.75C212.856 1609.55 193.127 1575.84 189.096 1538.74C185.065 1501.65 196.905 1462.76 223.302 1422.65C249.705 1382.53 290.634 1341.24 344.658 1299.42C452.706 1215.76 612.961 1130.07 813.581 1047.27C1214.8 881.669 1777.27 727.692 2405.86 624.612C3034.45 521.532 3610.1 488.876 4032.64 519.392C4243.91 534.651 4416.85 565.701 4538.98 611.609C4600.04 634.563 4648.36 661.214 4682.4 691.421C4716.44 721.623 4736.17 755.335 4740.2 792.429Z" stroke="#003459" stroke-width="2"/>
<path opacity="0.586207" d="M4769.31 987.176C4770.19 1024.65 4755.16 1062.48 4725.59 1100.22C4696.01 1137.97 4651.93 1175.57 4594.8 1212.53C4480.55 1286.45 4314.34 1357.69 4108.32 1422.41C3696.3 1551.83 3125.3 1655.06 2492.97 1701.42C1860.65 1747.77 1286.79 1728.47 870.168 1659.79C661.847 1625.45 492.889 1578.78 375.598 1521.83C316.951 1493.36 271.268 1462.34 240.039 1429.05C208.815 1395.76 192.084 1360.26 191.213 1322.79C190.341 1285.32 205.367 1247.49 234.938 1209.75C264.515 1172 308.602 1134.4 365.727 1097.44C479.975 1023.52 646.189 952.274 852.207 887.561C1264.23 758.138 1835.23 654.902 2467.55 608.547C3099.88 562.192 3673.73 581.5 4090.36 650.176C4298.68 684.515 4467.64 731.188 4584.93 788.135C4643.58 816.609 4689.26 847.629 4720.49 880.918C4751.71 914.202 4768.44 949.706 4769.31 987.176Z" stroke="#003459" stroke-width="2"/>
<path opacity="0.62069" d="M4781.01 1183.21C4778.71 1220.77 4760.61 1257.26 4728.09 1292.34C4695.57 1327.42 4648.66 1361.06 4588.87 1392.87C4469.29 1456.5 4298.38 1512.75 4088.53 1558.88C3668.85 1651.14 3093.65 1702.85 2462.41 1692.13C1831.17 1681.41 1263.47 1610.28 855.927 1503.97C652.146 1450.81 488.458 1388.87 376.894 1321.32C321.112 1287.54 278.405 1252.39 250.229 1216.27C222.059 1180.16 208.452 1143.13 210.747 1105.57C213.042 1068.01 231.14 1031.52 263.66 996.44C296.186 961.352 343.095 927.722 402.885 895.908C522.464 832.282 693.373 776.025 903.22 729.894C1322.9 637.636 1898.1 585.925 2529.34 596.648C3160.58 607.371 3728.28 678.497 4135.83 784.808C4339.61 837.966 4503.29 899.907 4614.86 967.459C4670.64 1001.24 4713.35 1036.39 4741.52 1072.51C4769.69 1108.62 4783.3 1145.65 4781.01 1183.21Z" stroke="#003459" stroke-width="2"/>
<path opacity="0.655172" d="M4775.31 1378.94C4769.87 1416.3 4748.84 1451.17 4713.62 1483.32C4678.39 1515.48 4629.01 1544.89 4567.01 1571.31C4443.01 1624.16 4268.71 1665 4056.63 1692.2C3632.49 1746.59 3057.46 1746.38 2432.11 1678.66C1806.76 1610.94 1249.54 1488.54 854.175 1345.4C656.485 1273.83 499.312 1197.1 394.325 1119.45C341.831 1080.63 302.426 1041.61 277.518 1002.94C252.615 964.27 242.237 926.005 247.681 888.638C253.125 851.27 274.158 816.407 309.379 784.251C344.607 752.091 393.981 722.686 455.981 696.262C579.98 643.414 754.284 602.572 966.364 575.375C1390.51 520.983 1965.53 521.191 2590.88 588.911C3216.23 656.63 3773.45 779.032 4168.82 922.17C4366.51 993.741 4523.68 1070.48 4628.67 1148.12C4681.16 1186.95 4720.57 1225.96 4745.48 1264.64C4770.38 1303.3 4780.76 1341.57 4775.31 1378.94Z" stroke="#003459" stroke-width="2"/>
<path opacity="0.689655" d="M4752.39 1572.8C4743.83 1609.69 4720.02 1642.67 4682.37 1671.65C4644.71 1700.64 4593.25 1725.6 4529.51 1746.43C4402.03 1788.1 4225.66 1813.21 4012.96 1821.27C3587.58 1837.38 3017.11 1785.26 2402.41 1661.06C1787.7 1536.85 1245.2 1364.11 865.028 1185.23C674.933 1095.79 525.472 1004.84 427.861 917.698C379.055 874.126 343.251 831.538 321.8 790.605C300.354 749.68 293.283 710.465 301.836 673.576C310.388 636.687 334.196 603.712 371.851 574.728C409.512 545.738 460.976 520.783 524.714 499.95C652.19 458.283 828.56 433.167 1041.26 425.111C1466.64 408.998 2037.11 461.124 2651.81 585.324C3266.52 709.525 3809.02 882.271 4189.19 1061.15C4379.29 1150.59 4528.75 1241.54 4626.36 1328.68C4675.17 1372.25 4710.97 1414.84 4732.42 1455.77C4753.87 1496.7 4760.94 1535.91 4752.39 1572.8Z" stroke="#003459" stroke-width="2"/>
<path opacity="0.724138" d="M4712.52 1763.24C4700.92 1799.37 4674.52 1830.21 4634.72 1855.8C4594.91 1881.4 4541.75 1901.71 4476.76 1916.8C4346.78 1946.96 4169.68 1956.16 3957.98 1945.02C3534.6 1922.73 2973.03 1819.08 2373.65 1639.35C1774.27 1459.61 1250.62 1237.83 888.528 1024.58C707.475 917.955 566.863 813.485 477.37 717.503C432.624 669.512 400.693 623.68 382.863 580.798C365.037 537.925 361.328 498.06 372.924 461.93C384.52 425.801 410.921 394.965 450.723 369.372C490.531 343.775 543.693 323.459 608.684 308.375C738.666 278.206 915.762 269.007 1127.46 280.152C1550.84 302.442 2112.41 406.089 2711.79 585.825C3311.17 765.561 3834.82 987.337 4196.91 1200.59C4377.97 1307.22 4518.58 1411.69 4608.07 1507.67C4652.82 1555.66 4684.75 1601.49 4702.58 1644.37C4720.41 1687.25 4724.11 1727.11 4712.52 1763.24Z" stroke="#003459" stroke-width="2"/>
<path opacity="0.758621" d="M4656.14 1948.73C4641.59 1983.83 4612.8 2012.29 4571.15 2034.29C4529.5 2056.3 4475.05 2071.82 4409.3 2081.05C4277.8 2099.49 4101.32 2092.7 3892.24 2062.44C3474.08 2001.91 2925.68 1847.54 2346.19 1613.63C1766.69 1379.73 1265.88 1110.61 924.624 864.609C753.991 741.603 623.298 624.408 542.605 520.319C502.259 468.274 474.444 419.546 460.371 375.043C446.3 330.548 445.981 290.336 460.533 255.241C475.085 220.146 503.879 191.684 545.524 169.678C587.177 147.668 641.632 132.146 707.382 122.926C838.881 104.484 1015.35 111.272 1224.44 141.534C1642.6 202.057 2191 356.435 2770.49 590.338C3349.98 824.242 3850.8 1093.36 4192.05 1339.36C4362.69 1462.37 4493.38 1579.56 4574.07 1683.65C4614.42 1735.7 4642.23 1784.42 4656.31 1828.93C4670.38 1873.42 4670.7 1913.64 4656.14 1948.73Z" stroke="#003459" stroke-width="2"/>
<path opacity="0.793103" d="M4583.81 2127.78C4566.41 2161.57 4535.44 2187.44 4492.27 2205.7C4449.09 2223.95 4393.76 2234.56 4327.75 2237.85C4195.73 2244.42 4021.23 2221.7 3816.34 2172.55C3406.58 2074.26 2875.54 1870.32 2320.34 1584.03C1765.14 1297.74 1290.97 983.328 973.152 706.445C814.238 567.998 694.458 438.971 623.179 327.567C587.539 271.865 564.053 220.613 553.843 174.826C543.635 129.048 546.709 88.7941 564.107 55.0011C581.504 21.2082 612.472 -4.66233 655.643 -22.9147C698.823 -41.1704 754.157 -51.7796 820.165 -55.0665C952.18 -61.6403 1126.69 -38.9171 1331.57 10.2318C1741.33 108.526 2272.38 312.461 2827.57 598.752C3382.77 885.043 3856.94 1199.45 4174.76 1476.34C4333.67 1614.78 4453.45 1743.81 4524.73 1855.21C4560.37 1910.92 4583.86 1962.17 4594.07 2007.96C4604.28 2053.73 4601.2 2093.99 4583.81 2127.78Z" stroke="#003459" stroke-width="2"/>
<path opacity="0.827586" d="M4496.17 2298.93C4455.94 2363.41 4364.47 2391.26 4232.85 2385.91C4101.32 2380.57 3930.11 2342.08 3730.98 2274.42C3332.75 2139.11 2823.09 1887.17 2296.41 1550.67C1769.74 1214.17 1325.82 856.854 1033.86 551.199C887.871 398.365 779.916 258.487 718.593 140.616C657.226 22.6607 642.743 -72.8857 682.97 -137.363C723.197 -201.84 814.667 -229.692 946.289 -224.345C1077.82 -219.001 1249.03 -180.516 1448.15 -112.854C1846.39 22.4634 2356.05 274.403 2882.72 610.903C3409.4 947.402 3853.32 1304.71 4145.28 1610.37C4291.26 1763.2 4399.22 1903.08 4460.54 2020.95C4521.91 2138.91 4536.39 2234.45 4496.17 2298.93Z" stroke="#003459" stroke-width="2"/>
<path opacity="0.862069" d="M4394.02 2460.82C4348.67 2521.69 4255.57 2541.29 4125.44 2524.06C3995.41 2506.84 3828.79 2452.88 3636.94 2367.22C3253.26 2195.91 2768.87 1897.89 2274.72 1513.74C1780.58 1129.59 1370.29 732.098 1106.41 399.996C974.459 233.938 879.151 84.2739 828.251 -39.1661C777.314 -162.695 771.001 -259.577 816.349 -320.443C861.696 -381.308 954.794 -400.909 1084.92 -383.676C1214.96 -366.456 1381.58 -312.501 1573.43 -226.842C1957.11 -55.5306 2441.5 242.496 2935.65 626.643C3429.79 1010.79 3840.08 1408.28 4103.96 1740.39C4235.91 1906.44 4331.22 2056.11 4382.12 2179.55C4433.05 2303.08 4439.37 2399.96 4394.02 2460.82Z" stroke="#003459" stroke-width="2"/>
<path opacity="0.896552" d="M4278.26 2612.12C4228.13 2668.92 4134.12 2680.11 4006.47 2651.13C3878.91 2622.16 3718.16 2553.15 3535.05 2450.14C3168.84 2244.14 2713.4 1902.3 2255.54 1473.43C1797.69 1044.56 1424.16 609.905 1190.36 253.884C1073.45 75.8665 991.517 -82.4452 951.427 -210.515C911.308 -338.677 913.213 -436.157 963.336 -492.948C1013.46 -549.738 1107.48 -560.938 1235.13 -531.951C1362.68 -502.985 1523.44 -433.972 1706.55 -330.967C2072.75 -124.966 2528.19 216.88 2986.05 645.751C3443.9 1074.62 3817.44 1509.27 4051.23 1865.29C4168.14 2043.31 4250.07 2201.62 4290.17 2329.69C4330.28 2457.85 4328.38 2555.33 4278.26 2612.12Z" stroke="#003459" stroke-width="2"/>
<path opacity="0.931035" d="M4149.88 2751.61C4095.37 2803.89 4001.15 2806.61 3876.95 2766.09C3752.84 2725.6 3599.18 2642.05 3426.2 2522.48C3080.25 2283.36 2657.23 1900.3 2239.15 1429.97C1821.07 959.635 1487.13 491.137 1285.2 113.906C1184.23 -74.717 1116.29 -240.471 1087.31 -372.197C1058.32 -504.016 1068.43 -601.353 1122.94 -653.635C1177.46 -705.917 1271.68 -708.63 1395.88 -668.111C1519.99 -627.619 1673.65 -544.073 1846.63 -424.507C2192.57 -185.383 2615.6 197.68 3033.68 668.011C3451.76 1138.34 3785.69 1606.84 3987.63 1984.07C4088.6 2172.69 4156.54 2338.45 4185.51 2470.17C4214.51 2601.99 4204.4 2699.33 4149.88 2751.61Z" stroke="#003459" stroke-width="2"/>
<path opacity="0.965517" d="M4009.98 2878.14C3951.49 2925.52 3857.78 2919.73 3737.98 2867.98C3618.27 2816.27 3472.86 2718.83 3311.33 2583.61C2988.28 2313.19 2600.89 1891.82 2225.77 1383.61C1850.65 875.397 1558.85 376.616 1390.32 -18.9536C1306.05 -216.746 1252.62 -388.681 1234.98 -523.06C1217.33 -657.534 1235.56 -753.986 1294.06 -801.361C1352.55 -848.737 1446.26 -842.944 1566.06 -791.199C1685.78 -739.491 1831.18 -642.047 1992.71 -506.829C2315.77 -236.403 2703.15 184.962 3078.27 693.174C3453.4 1201.39 3745.19 1700.17 3913.73 2095.74C3998 2293.53 4051.42 2465.46 4069.06 2599.84C4086.72 2734.32 4068.48 2830.77 4009.98 2878.14Z" stroke="#003459" stroke-width="2"/>
<path d="M3859.76 2990.67C3797.73 3032.77 3705.25 3018.52 3590.76 2955.94C3476.35 2893.41 3340.31 2782.81 3191.45 2632.97C2893.75 2333.3 2544.95 1876.84 2215.64 1334.62C1886.33 792.392 1638.9 267.125 1505.05 -143.774C1438.12 -349.231 1399.61 -526.038 1393.44 -662.048C1387.27 -798.153 1413.49 -892.986 1475.52 -935.094C1537.55 -977.201 1630.02 -962.946 1744.52 -900.37C1858.93 -837.838 1994.97 -727.239 2143.82 -577.398C2441.53 -277.728 2790.32 178.733 3119.63 720.957C3448.94 1263.18 3696.38 1788.45 3830.23 2199.35C3897.16 2404.8 3935.67 2581.61 3941.84 2717.62C3948.01 2853.73 3921.79 2948.56 3859.76 2990.67Z" stroke="#003459" stroke-width="2"/>
</g>
<g opacity="0.1">
<path opacity="0.0526316" d="M2183.36 5814.5C2376.57 5841.35 2824.64 5751.67 3071.3 5178.09C3379.61 4461.12 3087.46 3757.66 3275.07 3027.03C3413.53 2487.77 4004.22 1265.24 4808.74 1043.82" stroke="#003459" stroke-width="3"/>
<path opacity="0.105263" d="M1869.28 5660.06C2058.77 5708.12 2513.27 5668.44 2815.28 5125.27C3192.8 4446.31 2971.8 3714.43 3230.62 3008.54C3421.64 2487.55 4129.97 1337.01 4951.99 1205.71" stroke="#003459" stroke-width="3"/>
<path opacity="0.157895" d="M1571.81 5481.04C1755.52 5549.78 2211.45 5560.55 2565.52 5053.74C3008.11 4420.22 2860.68 3667.93 3187.87 2994.53C3429.36 2497.51 4247.58 1431.56 5078.08 1391.83" stroke="#003459" stroke-width="3"/>
<path opacity="0.210526" d="M1293.31 5279.41C1469.22 5368.07 1921.59 5429.16 2323.83 4964.26C2826.64 4383.13 2754.39 3618.68 3146.37 2985.14C3435.69 2517.53 4354.82 1547.86 5184.71 1600.12" stroke="#003459" stroke-width="3"/>
<path opacity="0.263158" d="M1035.88 5057.38C1202.06 5165 1645.92 5275.75 2091.93 4857.85C2649.44 4335.48 2653.17 3567.24 3105.65 2980.49C3439.62 2547.43 4449.6 1684.66 5269.79 1828.34" stroke="#003459" stroke-width="3"/>
<path opacity="0.315789" d="M801.444 4817.41C956.077 4942.8 1386.56 5101.99 1871.45 4735.68C2477.57 4277.79 2557.23 3514.18 3065.25 2980.66C3440.21 2586.88 4529.98 1840.45 5331.48 2073.99" stroke="#003459" stroke-width="3"/>
<path opacity="0.368421" d="M591.647 4562.12C733.038 4703.9 1145.43 4909.79 1663.89 4599.08C2311.96 4210.68 2466.69 3460.07 3024.68 2985.62C3436.53 2635.44 4594.14 2013.55 5368.17 2334.38" stroke="#003459" stroke-width="3"/>
<path opacity="0.421053" d="M407.869 4294.33C534.468 4450.96 924.253 4701.3 1470.6 4449.58C2153.53 4134.94 2381.62 3405.55 2983.48 2995.37C3427.69 2692.62 4640.46 2202.07 5378.54 2606.68" stroke="#003459" stroke-width="3"/>
<path opacity="0.473684" d="M251.203 4016.97C361.624 4186.73 724.528 4478.77 1292.77 4288.81C2003.08 4051.37 2302.04 3351.19 2941.17 3009.77C3412.89 2757.78 4667.53 2403.95 5361.57 2887.9" stroke="#003459" stroke-width="3"/>
<path opacity="0.526316" d="M122.447 3733.1C215.48 3914.13 547.527 4244.67 1131.45 4118.56C1861.35 3960.91 2227.91 3297.62 2897.29 3028.7C3391.35 2830.22 4674.12 2616.98 5316.52 3174.97" stroke="#003459" stroke-width="3"/>
<path opacity="0.578947" d="M22.0849 3445.83C96.7108 3636.15 394.263 4001.57 987.463 3940.68C1728.96 3864.56 2159.1 3245.42 2851.41 3051.95C3362.39 2909.16 4659.23 2838.85 5242.96 3464.77" stroke="#003459" stroke-width="3"/>
<path opacity="0.631579" d="M-49.6928 3158.34C5.70815 3355.86 265.505 3752.15 861.484 3757.15C1606.46 3763.39 2095.45 3195.18 2803.11 3079.29C3325.42 2993.75 4622.13 3067.14 5140.77 3754.13" stroke="#003459" stroke-width="3"/>
<path opacity="0.684211" d="M-93.0228 2873.77C-57.4537 3076.33 161.742 3499.16 753.97 3569.99C1494.25 3658.52 2036.76 3147.47 2752.01 3110.42C3279.92 3083.07 4562.28 3299.36 5010.17 4039.89" stroke="#003459" stroke-width="3"/>
<path opacity="0.736842" d="M-108.353 2595.24C-93.0053 2800.62 83.1869 3245.35 665.176 3381.24C1392.66 3551.09 1982.73 3102.8 2697.73 3145C3225.46 3176.14 4479.43 3532.95 4851.66 4318.91" stroke="#003459" stroke-width="3"/>
<path opacity="0.789474" d="M-96.4266 2325.84C-101.469 2531.79 29.7899 2993.54 595.163 3193C1301.88 3442.32 1933.04 3061.7 2639.97 3182.68C3161.73 3271.96 4373.58 3765.4 4666.06 4588.18" stroke="#003459" stroke-width="3"/>
<path opacity="0.842105" d="M-58.3036 2068.5C-83.6804 2272.76 1.20682 2746.49 543.77 3007.33C1221.97 3333.38 1887.32 3024.6 2578.42 3223.03C3088.51 3369.49 4244.94 3994.13 4454.48 4844.72" stroke="#003459" stroke-width="3"/>
<path opacity="0.894737" d="M4.68518 1826.07C-40.7481 2026.4 -3.16241 2506.91 510.646 2826.28C1152.91 3225.49 1845.15 2991.93 2512.85 3265.65C3005.67 3467.67 4094.03 4216.68 4218.32 5085.75" stroke="#003459" stroke-width="3"/>
<path opacity="0.947368" d="M90.9325 1601.21C25.9406 1795.42 15.813 2277.44 495.237 2651.84C1094.52 3119.83 1806.07 2964.06 2443.06 3310.06C2913.21 3565.44 3921.56 4430.61 3959.25 5308.64" stroke="#003459" stroke-width="3"/>
<path d="M198.569 1396.4C114.73 1582.36 57.0003 2060.61 496.788 2485.93C1046.52 3017.58 1769.59 2941.3 2368.89 3355.8C2811.22 3661.73 3728.52 4633.58 3679.19 5510.96" stroke="#003459" stroke-width="3"/>
</g>
</g>
<defs>
<clipPath id="clip0">
<rect width="4803" height="7032" fill="white"/>
</clipPath>
</defs>
</svg>
