<svg width="1680" height="6687" viewBox="0 0 1680 6687" fill="none" xmlns="http://www.w3.org/2000/svg">
<g clip-path="url(#clip0)">
<rect width="1680" height="6687" fill="white"/>
<g opacity="0.15">
<path opacity="0.0344828" d="M-413.594 4052.57C-435.898 4043.59 -432.473 4011 -408.79 4006.86L1115.06 3740.13C1128.83 3737.73 1138.2 3724.83 1136.24 3710.99L919.009 2179.3C915.633 2155.5 945.565 2142.17 960.997 2160.61L1953.91 3346.94C1962.88 3357.65 1978.74 3359.32 1989.74 3350.7L3207.61 2396.73C3226.54 2381.91 3253.04 2401.17 3244.79 2423.75L2713.86 3876.8C2709.06 3889.93 2715.54 3904.5 2728.51 3909.72L4163.6 4487.44C4185.91 4496.41 4182.48 4529 4158.8 4533.15L2634.95 4799.87C2621.18 4802.28 2611.81 4815.18 2613.77 4829.02L2831 6360.7C2834.38 6384.51 2804.44 6397.83 2789.01 6379.4L1796.1 5193.07C1787.13 5182.35 1771.27 5180.68 1760.27 5189.3L542.402 6143.27C523.474 6158.1 496.967 6138.84 505.218 6116.25L1036.15 4663.2C1040.95 4650.07 1034.47 4635.51 1021.5 4630.29L-413.594 4052.57Z" stroke="#003459" stroke-width="2"/>
<path opacity="0.0689655" d="M-370.143 3937.67C-391.946 3927.54 -386.82 3895.18 -362.953 3892.28L1152.53 3708.13C1166.4 3706.44 1176.43 3694.05 1175.2 3680.13L1040.23 2159.48C1038.11 2135.54 1068.7 2123.79 1083.14 2143.01L2000.36 3363.38C2008.76 3374.56 2024.5 3377.05 2035.94 3369.02L3285.38 2491.81C3305.06 2478 3330.52 2498.62 3321.1 2520.74L2722.83 3925.25C2717.36 3938.11 2723.07 3953 2735.75 3958.89L4120.15 4602.33C4141.95 4612.46 4136.82 4644.82 4112.96 4647.72L2597.48 4831.87C2583.6 4833.56 2573.57 4845.95 2574.81 4859.87L2709.77 6380.52C2711.89 6404.47 2681.31 6416.21 2666.86 6396.99L1749.65 5176.62C1741.25 5165.45 1725.5 5162.95 1714.06 5170.98L464.624 6048.19C444.947 6062 419.484 6041.38 428.906 6019.26L1027.17 4614.75C1032.65 4601.89 1026.93 4587 1014.26 4581.11L-370.143 3937.67Z" stroke="#003459" stroke-width="2"/>
<path opacity="0.103448" d="M-321.017 3826.72C-342.26 3815.46 -335.448 3783.41 -311.461 3781.76L1191.24 3678.58C1205.18 3677.62 1215.85 3665.77 1215.34 3651.8L1160.89 2146.55C1160.02 2122.53 1191.18 2112.4 1204.6 2132.35L2045.31 3382.13C2053.11 3393.73 2068.7 3397.04 2080.55 3389.62L3356.9 2589.84C3377.28 2577.07 3401.63 2598.99 3391.06 2620.59L2729.07 3973.56C2722.93 3986.11 2727.85 4001.27 2740.2 4007.82L4071.02 4713.28C4092.26 4724.55 4085.45 4756.59 4061.46 4758.24L2558.76 4861.42C2544.82 4862.38 2534.15 4874.23 2534.66 4888.2L2589.11 6393.45C2589.98 6417.48 2558.82 6427.6 2545.4 6407.65L1704.69 5157.87C1696.89 5146.27 1681.3 5142.96 1669.45 5150.38L393.096 5950.17C372.723 5962.93 348.373 5941.01 358.94 5919.41L1020.93 4566.45C1027.07 4553.89 1022.15 4538.73 1009.8 4532.18L-321.017 3826.72Z" stroke="#003459" stroke-width="2"/>
<path opacity="0.137931" d="M-266.507 3719.98C-287.131 3707.62 -278.651 3675.97 -254.611 3675.58L1231.04 3651.52C1245.02 3651.29 1256.29 3640.02 1256.52 3626.04L1280.58 2140.39C1280.97 2116.35 1312.62 2107.87 1324.98 2128.49L2088.64 3403.07C2095.83 3415.06 2111.23 3419.19 2123.44 3412.4L3422.09 2690.41C3443.1 2678.73 3466.27 2701.9 3454.59 2722.91L2732.6 4021.56C2725.81 4033.77 2729.94 4049.17 2741.93 4056.36L4016.51 4820.03C4037.13 4832.38 4028.65 4864.03 4004.61 4864.42L2518.96 4888.49C2504.99 4888.71 2493.71 4899.99 2493.49 4913.96L2469.42 6399.61C2469.03 6423.65 2437.38 6432.13 2425.02 6411.51L1661.36 5136.93C1654.17 5124.94 1638.77 5120.81 1626.56 5127.61L327.912 5849.59C306.899 5861.27 283.73 5838.1 295.413 5817.09L1017.4 4518.45C1024.19 4506.23 1020.06 4490.83 1008.07 4483.65L-266.507 3719.98Z" stroke="#003459" stroke-width="2"/>
<path opacity="0.172414" d="M-206.921 3617.71C-226.871 3604.29 -216.746 3573.13 -192.719 3574L1271.78 3626.98C1285.75 3627.49 1297.6 3616.82 1298.55 3602.87L1398.94 2140.86C1400.59 2116.87 1432.64 2110.06 1443.9 2131.3L2130.26 3426.09C2136.81 3438.44 2151.97 3443.36 2164.53 3437.22L3480.86 2793.15C3502.46 2782.59 3524.39 2806.94 3511.62 2827.31L2733.49 4069.11C2726.06 4080.95 2729.38 4096.55 2740.98 4104.35L3956.92 4922.3C3976.87 4935.72 3966.75 4966.88 3942.72 4966.01L2478.22 4913.03C2464.25 4912.52 2452.4 4923.19 2451.45 4937.13L2351.06 6399.15C2349.41 6423.13 2317.36 6429.95 2306.1 6408.7L1619.74 5113.92C1613.19 5101.57 1598.03 5096.64 1585.47 5102.79L269.136 5746.85C247.54 5757.42 225.616 5733.07 238.382 5712.7L1016.52 4470.9C1023.94 4459.05 1020.62 4443.46 1009.03 4435.66L-206.921 3617.71Z" stroke="#003459" stroke-width="2"/>
<path opacity="0.206897" d="M-142.575 3520.14C-161.795 3505.7 -150.053 3475.11 -126.104 3477.23L1313.3 3604.99C1327.23 3606.22 1339.62 3596.19 1341.3 3582.32L1515.61 2147.8C1518.51 2123.93 1550.87 2118.81 1561.01 2140.61L2170.07 3451.05C2175.96 3463.73 2190.85 3469.44 2203.71 3463.96L3533.19 2897.66C3555.31 2888.24 3575.93 2913.7 3562.11 2933.38L2731.77 4116.07C2723.74 4127.5 2726.23 4143.25 2737.41 4151.65L3892.58 5019.86C3911.8 5034.31 3900.06 5064.9 3876.11 5062.77L2436.7 4935.02C2422.78 4933.78 2410.39 4943.82 2408.7 4957.69L2234.39 6392.21C2231.49 6416.07 2199.13 6421.2 2189 6399.4L1579.93 5088.95C1574.04 5076.28 1559.15 5070.57 1546.3 5076.04L216.816 5642.35C194.696 5651.77 174.076 5626.3 187.891 5606.63L1018.23 4423.94C1026.26 4412.5 1023.77 4396.75 1012.6 4388.36L-142.575 3520.14Z" stroke="#003459" stroke-width="2"/>
<path opacity="0.241379" d="M-73.8029 3427.49C-92.2401 3412.06 -78.9134 3382.13 -55.1087 3385.51L1355.45 3585.55C1369.29 3587.52 1382.19 3578.15 1384.6 3564.38L1630.23 2161.04C1634.38 2137.35 1666.96 2133.93 1675.94 2156.23L2207.97 3477.84C2213.19 3490.8 2227.76 3497.29 2240.89 3492.49L3579.03 3003.54C3601.61 2995.29 3620.87 3021.8 3606.05 3040.73L2727.52 4162.28C2718.9 4173.29 2720.57 4189.14 2731.29 4198.11L3823.8 5112.51C3842.24 5127.94 3828.91 5157.87 3805.11 5154.5L2394.54 4954.45C2380.71 4952.48 2367.81 4961.86 2365.4 4975.62L2119.77 6378.97C2115.62 6402.65 2083.04 6406.07 2074.06 6383.77L1542.02 5062.16C1536.8 5049.2 1522.24 5042.71 1509.11 5047.51L170.966 5536.46C148.383 5544.71 129.124 5518.2 143.95 5499.28L1022.48 4377.72C1031.1 4366.71 1029.43 4350.86 1018.71 4341.89L-73.8029 3427.49Z" stroke="#003459" stroke-width="2"/>
<path opacity="0.275862" d="M-0.932914 3339.97C-18.5373 3323.59 -3.6622 3294.4 19.9332 3299.01L1398.08 3568.7C1411.8 3571.38 1425.17 3562.7 1428.3 3549.07L1742.47 2180.38C1747.85 2156.95 1780.57 2155.23 1788.37 2177.98L2243.9 3506.33C2248.43 3519.55 2262.64 3526.79 2276 3522.69L3618.41 3110.43C3641.39 3103.37 3659.24 3130.85 3643.44 3148.97L2720.81 4207.64C2711.63 4218.18 2712.47 4234.1 2722.7 4243.62L3750.93 5200.05C3768.54 5216.43 3753.66 5245.62 3730.07 5241L2351.92 4971.32C2338.2 4968.64 2324.83 4977.32 2321.7 4990.94L2007.52 6359.64C2002.15 6383.07 1969.43 6384.78 1961.63 6362.04L1506.1 5033.69C1501.57 5020.47 1487.36 5013.23 1474 5017.33L131.592 5429.59C108.609 5436.65 90.7634 5409.17 106.56 5391.05L1029.19 4332.37C1038.37 4321.84 1037.53 4305.92 1027.3 4296.4L-0.932914 3339.97Z" stroke="#003459" stroke-width="2"/>
<path opacity="0.310345" d="M75.6863 3257.7C58.963 3240.43 75.3456 3212.05 98.667 3217.9L1441.04 3554.38C1454.59 3557.78 1468.4 3549.81 1472.24 3536.37L1852.02 2205.6C1858.62 2182.48 1891.38 2182.48 1897.98 2205.6L2277.76 3536.37C2281.6 3549.81 2295.41 3557.78 2308.96 3554.38L3651.33 3217.9C3674.65 3212.05 3691.04 3240.43 3674.31 3257.7L2711.73 4251.99C2702.01 4262.03 2702.01 4277.97 2711.73 4288.02L3674.31 5282.3C3691.04 5299.58 3674.65 5327.95 3651.33 5322.11L2308.96 4985.62C2295.41 4982.23 2281.6 4990.2 2277.76 5003.64L1897.98 6334.4C1891.38 6357.52 1858.62 6357.52 1852.02 6334.4L1472.24 5003.64C1468.4 4990.2 1454.59 4982.23 1441.04 4985.62L98.6671 5322.1C75.3456 5327.95 58.9631 5299.58 75.6864 5282.3L1038.27 4288.02C1047.99 4277.97 1047.99 4262.03 1038.27 4251.99L75.6863 3257.7Z" stroke="#003459" stroke-width="2"/>
<path opacity="0.344828" d="M155.705 3180.88C139.909 3162.75 157.754 3135.27 180.737 3142.33L1484.16 3542.62C1497.53 3546.72 1511.73 3539.49 1516.27 3526.27L1958.56 2236.49C1966.36 2213.74 1999.08 2215.46 2004.46 2238.89L2309.51 3567.84C2312.64 3581.46 2326.01 3590.14 2339.73 3587.46L3677.86 3325.61C3701.45 3320.99 3716.33 3350.19 3698.72 3366.56L2700.35 4295.22C2690.12 4304.74 2689.28 4320.66 2698.46 4331.2L3594.3 5359.13C3610.09 5377.25 3592.25 5404.73 3569.26 5397.67L2265.84 4997.38C2252.48 4993.28 2238.27 5000.52 2233.74 5013.74L1791.44 6303.52C1783.64 6326.26 1750.92 6324.55 1745.54 6301.11L1440.49 4972.17C1437.36 4958.54 1423.99 4949.86 1410.27 4952.54L72.145 5214.39C48.5496 5219.01 33.6745 5189.82 51.279 5173.44L1049.65 4244.79C1059.89 4235.27 1060.72 4219.34 1051.54 4208.81L155.705 3180.88Z" stroke="#003459" stroke-width="2"/>
<path opacity="0.37931" d="M238.762 3109.61C223.936 3090.69 243.195 3064.18 265.777 3072.43L1527.32 3533.39C1540.45 3538.18 1555.01 3531.7 1560.23 3518.73L2061.81 2272.79C2070.79 2250.48 2103.37 2253.91 2107.52 2277.59L2339.09 3600.59C2341.49 3614.36 2354.39 3623.73 2368.23 3621.77L3698.04 3433.17C3721.85 3429.8 3735.18 3459.73 3716.74 3475.16L2686.77 4337.21C2676.05 4346.18 2674.38 4362.04 2683 4373.04L3511.23 5430.39C3526.06 5449.32 3506.8 5475.83 3484.22 5467.58L2222.68 5006.62C2209.55 5001.82 2194.99 5008.31 2189.77 5021.27L1688.19 6267.22C1679.21 6289.52 1646.63 6286.1 1642.48 6262.42L1410.91 4939.41C1408.5 4925.64 1395.6 4916.27 1381.76 4918.23L51.9533 5106.83C28.1486 5110.21 14.8217 5080.27 33.259 5064.84L1063.23 4202.8C1073.95 4193.82 1075.62 4177.97 1067 4166.97L238.762 3109.61Z" stroke="#003459" stroke-width="2"/>
<path opacity="0.413793" d="M324.503 3044.01C310.688 3024.33 331.308 2998.87 353.427 3008.29L1570.36 3526.65C1583.21 3532.13 1598.1 3526.41 1603.99 3513.74L2161.49 2314.24C2171.63 2292.43 2203.99 2297.56 2206.89 2321.43L2366.44 3634.5C2368.13 3648.37 2380.52 3658.41 2394.44 3657.17L3711.99 3540.23C3735.94 3538.11 3747.68 3568.7 3728.46 3583.14L2671.08 4377.85C2659.91 4386.25 2657.42 4402 2665.45 4413.44L3425.49 5496C3439.31 5515.68 3418.69 5541.14 3396.57 5531.72L2179.64 5013.36C2166.78 5007.88 2151.9 5013.59 2146.01 5026.27L1588.5 6225.77C1578.37 6247.57 1546.01 6242.45 1543.11 6218.58L1383.56 4905.51C1381.87 4891.63 1369.48 4881.6 1355.56 4882.84L38.0073 4999.77C14.0586 5001.9 2.31662 4971.31 21.5363 4956.86L1078.91 4162.15C1090.09 4153.76 1092.58 4138.01 1084.55 4126.57L324.503 3044.01Z" stroke="#003459" stroke-width="2"/>
<path opacity="0.448276" d="M412.571 2984.15C399.804 2963.77 421.729 2939.42 443.325 2949.99L1613.14 3522.37C1625.7 3528.51 1640.86 3523.58 1647.41 3511.23L2257.37 2360.57C2268.63 2339.33 2300.68 2346.14 2302.33 2370.13L2391.54 3669.41C2392.5 3683.35 2404.35 3694.02 2418.32 3693.51L3719.8 3646.43C3743.83 3645.56 3753.96 3676.72 3734.01 3690.14L2653.41 4417.04C2641.81 4424.84 2638.49 4440.44 2645.92 4452.28L3337.44 5555.86C3350.2 5576.23 3328.28 5600.58 3306.68 5590.02L2136.87 5017.64C2124.31 5011.5 2109.15 5016.42 2102.6 5028.77L1492.64 6179.44C1481.37 6200.68 1449.33 6193.87 1447.68 6169.88L1358.46 4870.6C1357.51 4856.66 1345.66 4845.99 1331.69 4846.49L30.2026 4893.58C6.17543 4894.45 -3.94955 4863.29 15.9998 4849.87L1096.6 4122.97C1108.2 4115.16 1111.51 4099.57 1104.09 4087.73L412.571 2984.15Z" stroke="#003459" stroke-width="2"/>
<path opacity="0.482759" d="M502.585 2930.09C490.902 2909.07 514.071 2885.9 535.084 2897.59L1655.52 3520.5C1667.74 3527.29 1683.14 3523.16 1690.32 3511.17L2349.19 2411.5C2361.55 2390.87 2393.2 2399.35 2393.59 2423.39L2414.35 3705.18C2414.58 3719.15 2425.85 3730.42 2439.83 3730.65L3721.61 3751.41C3745.65 3751.8 3754.13 3783.45 3733.5 3795.81L2633.83 4454.68C2621.84 4461.86 2617.71 4477.27 2624.51 4489.48L3247.42 5609.92C3259.1 5630.93 3235.93 5654.1 3214.92 5642.42L2094.48 5019.51C2082.26 5012.72 2066.86 5016.84 2059.68 5028.83L1400.81 6128.51C1388.45 6149.13 1356.8 6140.65 1356.41 6116.61L1335.65 4834.83C1335.42 4820.85 1324.15 4809.58 1310.17 4809.35L28.3915 4788.59C4.35178 4788.2 -4.12845 4756.55 16.4958 4744.2L1116.17 4085.32C1128.16 4078.14 1132.29 4062.74 1125.49 4050.52L502.585 2930.09Z" stroke="#003459" stroke-width="2"/>
<path opacity="0.517241" d="M594.199 2881.87C583.632 2860.28 607.981 2838.35 628.354 2851.12L1697.38 3520.99C1709.22 3528.41 1724.82 3525.09 1732.62 3513.5L2436.76 2466.73C2450.18 2446.78 2481.34 2456.91 2480.47 2480.93L2434.86 3741.67C2434.35 3755.64 2445.02 3767.48 2458.97 3768.44L3717.56 3854.86C3741.55 3856.51 3748.36 3888.56 3727.12 3899.82L2612.48 4490.69C2600.14 4497.23 2595.21 4512.4 2601.35 4524.95L3155.81 5658.14C3166.37 5679.73 3142.02 5701.66 3121.65 5688.89L2052.63 5019.02C2040.78 5011.6 2025.19 5014.92 2017.39 5026.51L1313.25 6073.28C1299.83 6093.23 1268.66 6083.1 1269.53 6059.08L1315.15 4798.34C1315.65 4784.37 1304.98 4772.53 1291.04 4771.57L32.4425 4685.15C8.45615 4683.5 1.64378 4651.45 22.8865 4640.19L1137.52 4049.32C1149.87 4042.78 1154.8 4027.61 1148.65 4015.06L594.199 2881.87Z" stroke="#003459" stroke-width="2"/>
<path opacity="0.551724" d="M687.042 2839.51C677.62 2817.39 703.084 2796.77 722.761 2810.59L1738.57 3523.77C1750.01 3531.8 1765.76 3529.3 1774.16 3518.13L2519.87 2525.95C2534.31 2506.73 2564.9 2518.47 2562.77 2542.42L2453.05 3778.73C2451.81 3792.65 2461.85 3805.05 2475.72 3806.73L3707.83 3956.44C3731.69 3959.34 3736.82 3991.71 3715.02 4001.84L2589.48 4524.97C2576.8 4530.86 2571.09 4545.74 2576.57 4558.6L3062.96 5700.5C3072.39 5722.62 3046.92 5743.23 3027.25 5729.42L2011.43 5016.24C1999.99 5008.21 1984.25 5010.7 1975.85 5021.87L1230.14 6014.05C1215.7 6033.27 1185.11 6021.53 1187.23 5997.58L1296.96 4761.27C1298.2 4747.35 1288.16 4734.96 1274.29 4733.27L42.1796 4583.56C18.3124 4580.66 13.1868 4548.3 34.9898 4538.16L1160.53 4015.04C1173.2 4009.15 1178.92 3994.26 1173.44 3981.4L687.042 2839.51Z" stroke="#003459" stroke-width="2"/>
<path opacity="0.586207" d="M780.752 2803C772.501 2780.42 799.008 2761.16 817.936 2775.99L1778.98 3528.78C1789.98 3537.4 1805.84 3535.73 1814.81 3525.01L2598.34 2588.86C2613.77 2570.42 2643.7 2583.75 2640.32 2607.55L2468.91 3816.24C2466.94 3830.08 2476.32 3842.97 2490.08 3845.38L3692.58 4055.86C3716.26 4060.01 3719.69 4092.59 3697.39 4101.57L2564.92 4557.46C2551.96 4562.68 2545.47 4577.25 2550.27 4590.37L2969.24 5737.01C2977.49 5759.59 2950.99 5778.85 2932.06 5764.02L1971.02 5011.23C1960.01 5002.61 1944.16 5004.27 1935.19 5014.99L1151.66 5951.15C1136.23 5969.59 1106.29 5956.26 1109.67 5932.45L1281.09 4723.77C1283.05 4709.93 1273.68 4697.03 1259.91 4694.62L57.4135 4484.15C33.7306 4480 30.3058 4447.42 52.6093 4438.44L1185.07 3982.55C1198.04 3977.33 1204.52 3962.76 1199.72 3949.63L780.752 2803Z" stroke="#003459" stroke-width="2"/>
<path opacity="0.62069" d="M874.991 2772.31C867.933 2749.33 895.412 2731.49 913.537 2747.28L1818.49 3535.95C1829.03 3545.13 1844.95 3544.29 1854.47 3534.06L2672.03 2655.12C2688.41 2637.52 2717.6 2652.39 2712.98 2675.99L2482.46 3854.04C2479.78 3867.75 2488.46 3881.12 2502.08 3884.25L3672.04 4152.81C3695.48 4158.19 3697.19 4190.91 3674.45 4198.71L2538.97 4588.09C2525.75 4592.63 2518.51 4606.83 2522.61 4620.19L2875.01 5767.69C2882.07 5790.67 2854.59 5808.52 2836.47 5792.72L1931.51 5004.06C1920.97 4994.88 1905.05 4995.71 1895.53 5005.94L1077.97 5884.88C1061.6 5902.49 1032.4 5887.61 1037.02 5864.02L1267.54 4685.97C1270.23 4672.25 1261.55 4658.88 1247.92 4655.75L77.9605 4387.19C54.5271 4381.81 52.8123 4349.09 75.5551 4341.3L1211.04 3951.91C1224.26 3947.38 1231.5 3933.17 1227.39 3919.81L874.991 2772.31Z" stroke="#003459" stroke-width="2"/>
<path opacity="0.655172" d="M969.389 2747.4C963.544 2724.08 991.919 2707.7 1009.19 2724.42L1856.98 3545.18C1867.03 3554.91 1882.97 3554.91 1893.01 3545.18L2740.8 2724.42C2758.08 2707.7 2786.45 2724.08 2780.61 2747.4L2493.7 3891.99C2490.3 3905.55 2498.27 3919.36 2511.71 3923.19L3646.41 4247.02C3669.53 4253.62 3669.53 4286.38 3646.41 4292.98L2511.72 4616.81C2498.28 4620.65 2490.3 4634.45 2493.7 4648.01L2780.61 5792.6C2786.45 5815.92 2758.08 5832.3 2740.8 5815.58L1893.01 4994.82C1882.97 4985.1 1867.03 4985.1 1856.98 4994.82L1009.19 5815.58C991.919 5832.3 963.544 5815.92 969.389 5792.6L1256.3 4648.01C1259.69 4634.45 1251.72 4620.65 1238.28 4616.81L103.585 4292.98C80.4647 4286.38 80.4647 4253.62 103.584 4247.02L1238.28 3923.19C1251.72 3919.36 1259.69 3905.55 1256.29 3891.99L969.389 2747.4Z" stroke="#003459" stroke-width="2"/>
<path opacity="0.689655" d="M1063.62 2728.14C1059 2704.55 1088.2 2689.67 1104.57 2707.28L1894.36 3556.36C1903.88 3566.59 1919.8 3567.42 1930.34 3558.24L2804.55 2796.37C2822.68 2780.57 2850.16 2798.42 2843.1 2821.4L2502.67 3929.92C2498.57 3943.28 2505.8 3957.48 2519.02 3962.02L3615.93 4338.17C3638.67 4345.97 3636.96 4378.69 3613.53 4384.07L2483.31 4643.51C2469.69 4646.63 2461 4660.01 2463.69 4673.72L2686.38 5811.75C2691 5835.34 2661.8 5850.22 2645.43 5832.61L1855.64 4983.54C1846.12 4973.3 1830.2 4972.47 1819.66 4981.65L945.451 5743.52C927.325 5759.32 899.846 5741.47 906.904 5718.49L1247.33 4609.98C1251.44 4596.62 1244.2 4582.41 1230.98 4577.88L134.071 4201.72C111.328 4193.92 113.043 4161.2 136.476 4155.82L1266.69 3896.39C1280.32 3893.26 1289 3879.89 1286.31 3866.17L1063.62 2728.14Z" stroke="#003459" stroke-width="2"/>
<path opacity="0.724138" d="M1157.34 2714.56C1153.96 2690.75 1183.9 2677.43 1199.33 2695.86L1930.51 3569.48C1939.48 3580.19 1955.34 3581.86 1966.34 3573.24L2863.18 2870.74C2882.1 2855.92 2908.61 2875.17 2900.36 2897.76L2509.38 3967.78C2504.58 3980.91 2511.07 3995.48 2524.03 4000.7L3580.84 4426.13C3603.14 4435.11 3599.71 4467.69 3576.03 4471.84L2453.87 4668.25C2440.1 4670.66 2430.73 4683.56 2432.69 4697.4L2592.66 5825.34C2596.03 5849.14 2566.1 5862.47 2550.67 5844.03L1819.49 4970.42C1810.52 4959.7 1794.66 4958.03 1783.66 4966.65L886.824 5669.15C867.896 5683.98 841.388 5664.72 849.64 5642.14L1240.62 4572.11C1245.42 4558.98 1238.93 4544.42 1225.97 4539.2L169.164 4113.76C146.861 4104.78 150.286 4072.2 173.969 4068.05L1296.13 3871.64C1309.9 3869.23 1319.27 3856.33 1317.31 3842.49L1157.34 2714.56Z" stroke="#003459" stroke-width="2"/>
<path opacity="0.758621" d="M1250.23 2706.49C1248.1 2682.54 1278.69 2670.8 1293.14 2690.02L1965.34 3584.4C1973.74 3595.57 1989.49 3598.07 2000.93 3590.04L2916.62 2947.15C2936.29 2933.33 2961.76 2953.95 2952.33 2976.07L2513.88 4005.41C2508.4 4018.27 2514.12 4033.16 2526.79 4039.05L3541.39 4510.61C3563.19 4520.75 3558.07 4553.11 3534.2 4556.01L2423.54 4690.97C2409.66 4692.65 2399.63 4705.04 2400.86 4718.96L2499.78 5833.41C2501.9 5857.36 2471.31 5869.11 2456.87 5849.89L1784.66 4955.5C1776.26 4944.33 1760.52 4941.84 1749.08 4949.87L833.39 5592.75C813.712 5606.57 788.249 5585.95 797.671 5563.83L1236.13 4534.49C1241.6 4521.63 1235.89 4506.74 1223.22 4500.85L208.617 4029.29C186.814 4019.16 191.939 3986.79 215.807 3983.89L1326.47 3848.94C1340.34 3847.25 1350.38 3834.86 1349.14 3820.94L1250.23 2706.49Z" stroke="#003459" stroke-width="2"/>
<path opacity="0.793103" d="M1341.96 2703.79C1341.09 2679.76 1372.26 2669.64 1385.68 2689.59L1998.77 3601.01C2006.57 3612.6 2022.17 3615.92 2034.01 3608.5L2964.81 3025.24C2985.19 3012.48 3009.54 3034.4 2998.97 3056L2516.2 4042.66C2510.06 4055.22 2514.99 4070.38 2527.34 4076.93L3497.85 4591.4C3519.09 4602.66 3512.28 4634.71 3488.29 4636.35L2392.43 4711.6C2378.49 4712.56 2367.82 4724.41 2368.33 4738.38L2408.04 5836.1C2408.91 5860.13 2377.75 5870.25 2364.33 5850.3L1751.23 4938.88C1743.43 4927.28 1727.83 4923.97 1715.99 4931.39L785.191 5514.65C764.818 5527.41 740.468 5505.49 751.035 5483.89L1233.8 4497.22C1239.94 4484.67 1235.02 4469.51 1222.67 4462.96L252.153 3948.49C230.911 3937.23 237.723 3905.18 261.709 3903.53L1357.57 3828.29C1371.51 3827.33 1382.18 3815.48 1381.68 3801.51L1341.96 2703.79Z" stroke="#003459" stroke-width="2"/>
<path opacity="0.827586" d="M1432.24 2706.34C1432.63 2682.3 1464.28 2673.82 1476.63 2694.45L2030.71 3619.22C2037.89 3631.21 2053.3 3635.33 2065.51 3628.54L3007.74 3104.71C3028.75 3093.02 3051.92 3116.19 3040.24 3137.21L2516.41 4079.43C2509.61 4091.65 2513.74 4107.05 2525.73 4114.23L3450.5 4668.31C3471.12 4680.67 3462.64 4712.32 3438.6 4712.71L2360.69 4730.17C2346.72 4730.39 2335.44 4741.67 2335.22 4755.64L2317.76 5833.55C2317.37 5857.59 2285.72 5866.07 2273.36 5845.45L1719.28 4920.68C1712.1 4908.69 1696.7 4904.57 1684.48 4911.36L742.255 5435.19C721.241 5446.87 698.072 5423.7 709.755 5402.69L1233.59 4460.46C1240.38 4448.25 1236.25 4432.85 1224.26 4425.66L299.497 3871.59C278.872 3859.23 287.352 3827.58 311.392 3827.19L1389.3 3809.73C1403.28 3809.5 1414.55 3798.23 1414.78 3784.25L1432.24 2706.34Z" stroke="#003459" stroke-width="2"/>
<path opacity="0.862069" d="M1520.77 2713.97C1522.42 2689.99 1554.47 2683.17 1565.73 2704.42L2061.1 3638.9C2067.65 3651.25 2082.81 3656.18 2095.36 3650.03L3045.4 3185.19C3067 3174.62 3088.92 3198.97 3076.16 3219.35L2514.55 4115.59C2507.13 4127.43 2510.45 4143.03 2522.05 4150.83L3399.63 4741.17C3419.58 4754.59 3409.45 4785.75 3385.43 4784.88L2328.46 4746.64C2314.49 4746.13 2302.64 4756.8 2301.68 4770.75L2229.23 5825.92C2227.58 5849.91 2195.53 5856.72 2184.27 5835.48L1688.9 4901C1682.36 4888.65 1667.19 4883.72 1654.64 4889.86L704.6 5354.71C683.004 5365.27 661.079 5340.92 673.846 5320.55L1235.45 4424.31C1242.87 4412.46 1239.55 4396.87 1227.96 4389.07L350.373 3798.73C330.424 3785.31 340.549 3754.15 364.576 3755.02L1421.55 3793.26C1435.51 3793.76 1447.36 3783.09 1448.32 3769.15L1520.77 2713.97Z" stroke="#003459" stroke-width="2"/>
<path opacity="0.896552" d="M1607.27 2726.5C1610.17 2702.64 1642.54 2697.51 1652.67 2719.31L2089.86 3659.95C2095.75 3672.63 2110.63 3678.34 2123.49 3672.86L3077.8 3266.37C3099.92 3256.95 3120.54 3282.41 3106.72 3302.09L2510.7 4151.02C2502.67 4162.46 2505.16 4178.21 2516.34 4186.61L3345.52 4809.81C3364.74 4824.26 3353 4854.85 3329.05 4852.72L2295.84 4761.02C2281.92 4759.78 2269.53 4769.82 2267.84 4783.69L2142.72 5813.39C2139.82 5837.26 2107.46 5842.38 2097.33 5820.58L1660.14 4879.94C1654.25 4867.27 1639.36 4861.55 1626.5 4867.03L672.199 5273.53C650.08 5282.95 629.46 5257.48 643.275 5237.81L1239.3 4388.87C1247.33 4377.43 1244.83 4361.68 1233.66 4353.29L404.475 3730.08C385.255 3715.64 396.997 3685.05 420.946 3687.17L1454.16 3778.87C1468.08 3780.11 1480.47 3770.08 1482.16 3756.2L1607.27 2726.5Z" stroke="#003459" stroke-width="2"/>
<path opacity="0.931035" d="M1691.48 2743.75C1695.63 2720.06 1728.21 2716.64 1737.19 2738.94L2116.94 3682.26C2122.16 3695.22 2136.72 3701.71 2149.85 3696.91L3104.97 3347.92C3127.55 3339.67 3146.81 3366.17 3131.99 3385.1L2504.93 4185.63C2496.31 4196.63 2497.97 4212.49 2508.69 4221.46L3288.49 4874.12C3306.93 4889.55 3293.6 4919.48 3269.8 4916.11L2262.99 4773.32C2249.15 4771.36 2236.25 4780.73 2233.84 4794.5L2058.52 5796.15C2054.37 5819.83 2021.79 5823.26 2012.81 5800.96L1633.06 4857.64C1627.84 4844.68 1613.28 4838.19 1600.15 4842.99L645.03 5191.98C622.447 5200.23 603.188 5173.73 618.014 5154.8L1245.08 4354.27C1253.69 4343.27 1252.03 4327.41 1241.31 4318.44L461.512 3665.78C443.075 3650.35 456.402 3620.42 480.206 3623.79L1487.01 3766.58C1500.85 3768.54 1513.75 3759.17 1516.16 3745.4L1691.48 2743.75Z" stroke="#003459" stroke-width="2"/>
<path opacity="0.965517" d="M1773.14 2765.5C1778.52 2742.06 1811.24 2740.35 1819.04 2763.09L2142.29 3705.7C2146.82 3718.92 2161.03 3726.16 2174.39 3722.06L3126.97 3429.51C3149.95 3422.45 3167.8 3449.93 3152 3468.06L2497.3 4219.3C2488.12 4229.84 2488.95 4245.76 2499.19 4255.28L3228.83 4933.97C3246.43 4950.34 3231.56 4979.54 3207.96 4974.92L2230.02 4783.55C2216.3 4780.87 2202.93 4789.55 2199.8 4803.17L1976.86 5774.41C1971.48 5797.84 1938.76 5799.56 1930.96 5776.81L1607.72 4834.2C1603.18 4820.98 1588.98 4813.74 1575.62 4817.85L623.034 5110.39C600.05 5117.45 582.205 5089.97 598.001 5071.84L1252.7 4320.6C1261.89 4310.07 1261.05 4294.14 1250.82 4284.63L521.176 3605.93C503.572 3589.56 518.447 3560.37 542.042 3564.98L1519.99 3756.35C1533.7 3759.03 1547.08 3750.35 1550.2 3736.73L1773.14 2765.5Z" stroke="#003459" stroke-width="2"/>
<path d="M1852.02 2791.52C1858.62 2768.4 1891.38 2768.4 1897.98 2791.52L2165.85 3730.15C2169.69 3743.59 2183.49 3751.56 2197.05 3748.16L3143.86 3510.83C3167.18 3504.99 3183.57 3533.36 3166.84 3550.64L2487.9 4251.93C2478.18 4261.97 2478.18 4277.92 2487.9 4287.96L3166.84 4989.26C3183.57 5006.53 3167.18 5034.91 3143.86 5029.06L2197.05 4791.73C2183.49 4788.33 2169.69 4796.31 2165.85 4809.75L1897.98 5748.37C1891.38 5771.49 1858.62 5771.49 1852.02 5748.37L1584.15 4809.75C1580.31 4796.31 1566.5 4788.33 1552.94 4791.73L606.133 5029.06C582.811 5034.91 566.429 5006.53 583.152 4989.26L1262.09 4287.96C1271.81 4277.92 1271.81 4261.97 1262.09 4251.93L583.152 3550.64C566.429 3533.36 582.811 3504.99 606.133 3510.83L1552.94 3748.16C1566.5 3751.56 1580.31 3743.59 1584.15 3730.15L1852.02 2791.52Z" stroke="#003459" stroke-width="2"/>
</g>
<g opacity="0.1">
<path opacity="0.0344828" d="M785.616 -469.306C801.023 -467.331 815.282 -458.653 828.318 -443.778C841.36 -428.896 853.134 -407.859 863.548 -381.293C884.376 -328.162 899.687 -253.115 908.908 -161.536C927.348 21.6044 921.408 270.633 886.702 542.129C851.996 813.625 795.102 1056.12 731.189 1228.7C699.229 1315 665.534 1383.76 632.014 1429.92C615.253 1453.01 598.567 1470.39 582.202 1481.5C565.845 1492.61 549.863 1497.41 534.456 1495.43C519.049 1493.46 504.79 1484.78 491.754 1469.91C478.712 1455.02 466.938 1433.99 456.524 1407.42C435.697 1354.29 420.385 1279.24 411.165 1187.66C392.725 1004.52 398.664 755.495 433.37 483.999C468.077 212.503 524.971 -29.9916 588.884 -202.572C620.843 -288.87 654.538 -357.634 688.059 -403.796C704.819 -426.877 721.506 -444.265 737.87 -455.376C754.227 -466.481 770.209 -471.282 785.616 -469.306Z" stroke="#003459" stroke-width="2"/>
<path opacity="0.0689655" d="M877.402 -458.866C892.579 -455.555 906.028 -445.668 917.719 -429.713C929.414 -413.752 939.311 -391.769 947.371 -364.398C963.49 -309.655 972.203 -233.561 973.409 -141.53C975.82 42.5156 948.203 290.071 889.969 557.5C831.735 824.929 753.924 1061.53 675.214 1227.88C635.855 1311.06 596.294 1376.62 558.878 1419.69C540.169 1441.22 522.031 1457.09 504.76 1466.73C487.496 1476.36 471.156 1479.75 455.98 1476.44C440.803 1473.13 427.354 1463.24 415.664 1447.29C403.968 1431.33 394.071 1409.35 386.012 1381.97C369.893 1327.23 361.179 1251.14 359.973 1159.11C357.562 975.061 385.18 727.505 443.413 460.076C501.647 192.648 579.458 -43.9576 658.169 -210.305C697.528 -293.486 737.088 -359.048 774.504 -402.111C793.213 -423.643 811.351 -439.51 828.622 -449.151C845.886 -458.789 862.226 -462.177 877.402 -458.866Z" stroke="#003459" stroke-width="2"/>
<path opacity="0.103448" d="M967.589 -441.062C982.42 -436.441 994.957 -425.418 1005.21 -408.506C1015.47 -391.587 1023.42 -368.826 1029.06 -340.856C1040.35 -284.919 1042.4 -208.357 1035.58 -116.574C1021.94 66.9756 972.859 311.174 891.541 572.501C810.223 833.827 712.088 1062.74 619.178 1221.59C572.719 1301.02 527.595 1362.88 486.567 1402.52C466.053 1422.34 446.6 1436.56 428.554 1444.66C410.516 1452.76 393.943 1454.71 379.112 1450.09C364.281 1445.47 351.745 1434.44 341.488 1417.53C331.227 1400.61 323.284 1377.85 317.64 1349.88C306.352 1293.94 304.302 1217.38 311.121 1125.6C324.756 942.049 373.842 697.851 455.16 436.524C536.479 175.198 634.614 -53.7168 727.523 -212.565C773.982 -291.996 819.106 -353.858 860.134 -393.494C880.649 -413.313 900.101 -427.537 918.147 -435.636C936.185 -443.732 952.759 -445.683 967.589 -441.062Z" stroke="#003459" stroke-width="2"/>
<path opacity="0.137931" d="M1055.54 -416.06C1069.91 -410.163 1081.44 -398.091 1090.18 -380.349C1098.93 -362.6 1104.86 -339.234 1108.05 -310.88C1114.42 -254.173 1109.79 -177.726 1095 -86.8897C1065.42 94.7669 995.237 333.75 891.453 586.985C787.669 840.221 669.957 1059.7 563.556 1209.84C510.35 1284.92 460.006 1342.61 415.679 1378.52C393.515 1396.47 372.896 1408.95 354.213 1415.44C335.537 1421.93 318.856 1422.43 304.484 1416.54C290.112 1410.64 278.583 1398.57 269.839 1380.83C261.091 1363.08 255.161 1339.71 251.976 1311.36C245.605 1254.65 250.235 1178.2 265.025 1087.37C294.605 905.71 364.785 666.727 468.569 413.491C572.352 160.256 690.065 -59.2262 796.466 -209.366C849.671 -284.442 900.016 -342.134 944.343 -378.041C966.507 -395.995 987.126 -408.47 1005.81 -414.965C1024.48 -421.457 1041.17 -421.956 1055.54 -416.06Z" stroke="#003459" stroke-width="2"/>
<path opacity="0.172414" d="M1140.62 -384.087C1154.43 -376.96 1164.86 -363.929 1172.03 -345.493C1179.19 -327.05 1183.07 -303.256 1183.77 -274.733C1185.17 -217.688 1173.9 -141.939 1151.25 -52.7399C1105.95 125.641 1015.21 357.59 889.752 600.807C764.293 844.024 627.899 1052.4 508.816 1192.69C449.269 1262.84 394.087 1315.92 346.798 1347.83C323.154 1363.78 301.526 1374.41 282.347 1379.25C263.176 1384.09 246.514 1383.14 232.71 1376.01C218.906 1368.88 208.473 1355.85 201.308 1337.42C194.14 1318.97 190.268 1295.18 189.566 1266.66C188.161 1209.61 199.434 1133.86 222.085 1044.66C267.382 866.281 358.123 634.333 483.582 391.116C609.042 147.899 745.436 -60.4804 864.519 -200.769C924.066 -270.919 979.248 -324.001 1026.54 -355.907C1050.18 -371.86 1071.81 -382.489 1090.99 -387.33C1110.16 -392.17 1126.82 -391.213 1140.62 -384.087Z" stroke="#003459" stroke-width="2"/>
<path opacity="0.206897" d="M1222.26 -345.412C1235.39 -337.11 1244.65 -323.219 1250.18 -304.23C1255.71 -285.232 1257.5 -261.192 1255.71 -232.718C1252.14 -175.769 1234.31 -101.293 1203.97 -14.4108C1143.3 159.338 1032.69 382.486 886.51 613.834C740.33 845.181 586.292 1040.87 455.433 1170.24C389.998 1234.93 330.399 1283 280.508 1310.66C255.563 1324.49 233.09 1333.19 213.562 1336.35C194.042 1339.5 177.526 1337.09 164.395 1328.79C151.264 1320.48 142.006 1306.59 136.474 1287.6C130.941 1268.61 129.157 1244.57 130.943 1216.09C134.514 1159.14 152.346 1084.67 182.684 997.786C243.355 824.037 353.965 600.889 500.146 369.541C646.326 138.194 800.364 -57.4964 931.222 -186.866C996.657 -251.557 1056.26 -299.625 1106.15 -327.286C1131.09 -341.117 1153.57 -349.82 1173.09 -352.971C1192.61 -356.12 1209.13 -353.715 1222.26 -345.412Z" stroke="#003459" stroke-width="2"/>
<path opacity="0.241379" d="M1299.87 -300.373C1312.23 -290.958 1320.24 -276.313 1324.1 -256.914C1327.95 -237.507 1327.64 -213.404 1323.38 -185.195C1314.86 -128.776 1290.6 -56.1395 1252.81 27.7645C1177.22 195.558 1047.58 408.208 881.797 625.926C716.008 843.643 545.499 1025.15 403.861 1142.62C333.036 1201.36 269.473 1244.05 217.36 1267.25C191.303 1278.86 168.157 1285.57 148.428 1287C128.707 1288.44 112.463 1284.6 100.105 1275.19C87.7471 1265.77 79.7343 1251.13 75.8785 1231.73C72.0211 1212.32 72.3391 1188.22 76.5993 1160.01C85.1195 1103.59 109.374 1030.96 147.169 947.052C222.751 779.259 352.39 566.608 518.178 348.891C683.967 131.173 854.476 -50.3383 996.114 -167.805C1066.94 -226.543 1130.5 -269.231 1182.62 -292.438C1208.67 -304.041 1231.82 -310.752 1251.55 -312.188C1271.27 -313.624 1287.51 -309.788 1299.87 -300.373Z" stroke="#003459" stroke-width="2"/>
<path opacity="0.275862" d="M1372.91 -249.331C1384.4 -238.875 1391.11 -223.588 1393.26 -203.927C1395.41 -184.259 1392.99 -160.276 1386.29 -132.546C1372.88 -77.0859 1342.39 -6.84264 1297.43 73.445C1207.51 234.006 1059.83 434.54 875.694 636.97C691.56 839.401 505.876 1005.35 354.537 1110.02C278.86 1162.36 211.817 1199.35 157.879 1217.92C130.909 1227.21 107.266 1231.87 87.4856 1231.59C67.7139 1231.3 51.8659 1226.06 40.3751 1215.6C28.8843 1205.15 22.1778 1189.86 20.027 1170.2C17.8753 1150.53 20.2925 1126.55 26.9948 1098.82C40.3993 1043.36 70.8921 973.115 115.856 892.827C205.775 732.266 353.455 531.732 537.59 329.302C721.725 126.871 907.408 -39.0807 1058.75 -143.75C1134.42 -196.089 1201.47 -233.073 1255.41 -251.647C1282.37 -260.935 1306.02 -265.602 1325.8 -265.313C1345.57 -265.025 1361.42 -259.787 1372.91 -249.331Z" stroke="#003459" stroke-width="2"/>
<path opacity="0.310345" d="M1440.88 -192.719C1451.42 -181.301 1456.77 -165.488 1457.2 -145.715C1457.63 -125.934 1453.13 -102.254 1444.03 -75.2148C1425.85 -21.1364 1389.35 46.1794 1337.56 122.239C1233.99 274.346 1069.39 461.238 868.309 646.84C667.229 832.443 467.786 981.573 307.896 1072.65C227.944 1118.19 157.932 1149.19 102.578 1162.99C74.901 1169.89 50.9401 1172.48 31.2598 1170.47C11.5879 1168.45 -3.74395 1161.86 -14.2802 1150.44C-24.8165 1139.02 -30.1655 1123.21 -30.595 1103.44C-31.0246 1083.65 -26.5267 1059.97 -17.4331 1032.93C0.753606 978.856 37.2524 911.54 89.0426 835.48C192.614 683.374 357.211 496.482 558.291 310.88C759.371 125.277 958.815 -23.8527 1118.7 -114.928C1198.66 -160.47 1268.67 -191.467 1324.02 -205.269C1351.7 -212.17 1375.66 -214.758 1395.34 -212.746C1415.01 -210.735 1430.34 -204.137 1440.88 -192.719Z" stroke="#003459" stroke-width="2"/>
<path opacity="0.344828" d="M1503.32 -130.993C1512.82 -118.7 1516.77 -102.481 1515.47 -82.7473C1514.18 -63.0049 1507.63 -39.8079 1496.22 -13.6647C1473.39 38.6208 1431.16 102.497 1372.94 173.75C1256.5 316.245 1076.24 488.072 859.746 655.434C643.251 822.797 431.565 953.969 264.342 1030.76C180.723 1069.15 108.274 1093.93 51.9267 1102.85C23.7526 1107.32 -0.343448 1107.81 -19.7741 1104.09C-39.1965 1100.37 -53.8955 1092.46 -63.3971 1080.16C-72.8986 1067.87 -76.8495 1051.65 -75.5543 1031.92C-74.2586 1012.18 -67.7141 988.98 -56.2986 962.837C-33.468 910.552 8.75899 846.676 66.9818 775.422C183.417 632.927 363.679 461.101 580.174 293.738C796.669 126.376 1008.36 -4.79614 1175.58 -81.5847C1259.2 -119.982 1331.65 -144.758 1387.99 -153.681C1416.17 -158.143 1440.26 -158.633 1459.69 -154.913C1479.12 -151.195 1493.82 -143.285 1503.32 -130.993Z" stroke="#003459" stroke-width="2"/>
<path opacity="0.37931" d="M1559.79 -64.6623C1568.19 -51.5886 1570.71 -35.0878 1567.7 -15.5424C1564.69 4.01127 1556.15 26.5488 1542.5 51.5967C1515.2 101.691 1467.56 161.641 1403.35 227.546C1274.94 359.345 1080.38 514.799 850.119 662.647C619.857 810.496 397.54 922.712 224.257 984.629C137.608 1015.59 63.2724 1033.96 6.36023 1037.93C-22.0963 1039.92 -46.1441 1038.31 -65.1773 1032.91C-84.2024 1027.51 -98.1567 1018.35 -106.551 1005.28C-114.946 992.204 -117.468 975.704 -114.458 956.158C-111.447 936.604 -102.906 914.067 -89.2553 889.019C-61.9547 838.924 -14.3208 778.974 49.8914 713.069C178.304 581.271 372.86 425.817 603.121 277.968C833.383 130.12 1055.7 17.9041 1228.98 -44.013C1315.63 -74.9744 1389.97 -93.3393 1446.88 -97.3167C1475.34 -99.3053 1499.38 -97.6928 1518.42 -92.2936C1537.44 -86.8966 1551.4 -77.736 1559.79 -64.6623Z" stroke="#003459" stroke-width="2"/>
<path opacity="0.413793" d="M1609.93 5.74224C1617.15 19.4975 1618.23 36.1549 1613.52 55.3629C1608.82 74.5791 1598.35 96.2857 1582.57 120.047C1551 167.57 1498.32 223.138 1428.61 283.193C1289.2 403.292 1081.83 541.19 839.554 668.399C597.277 795.609 366.02 888.015 187.995 934.589C98.9751 957.878 23.3201 969.693 -33.7238 968.694C-62.2463 968.195 -86.0627 964.492 -104.554 957.454C-123.037 950.42 -136.14 940.078 -143.363 926.323C-150.587 912.567 -151.662 895.91 -146.96 876.702C-142.257 857.486 -131.784 835.779 -116.002 812.017C-84.4391 764.495 -31.7608 708.927 37.9521 648.872C177.365 528.773 384.733 390.875 627.01 263.666C869.286 136.456 1100.54 44.0503 1278.57 -2.52424C1367.59 -25.8136 1443.24 -37.6283 1500.29 -36.6293C1528.81 -36.1298 1552.63 -32.4272 1571.12 -25.3896C1589.6 -18.355 1602.7 -8.01305 1609.93 5.74224Z" stroke="#003459" stroke-width="2"/>
<path opacity="0.448276" d="M1653.39 79.6498C1659.39 93.982 1659.01 110.669 1652.65 129.394C1646.29 148.126 1633.96 168.837 1616.17 191.131C1580.58 235.721 1523.26 286.483 1448.58 340.231C1299.23 447.716 1080.63 567.009 828.178 672.611C575.73 778.213 337.293 850.106 155.882 880.983C65.1684 896.423 -11.2306 901.598 -67.9722 895.63C-96.3435 892.646 -119.747 886.882 -137.555 878.259C-155.356 869.64 -167.508 858.196 -173.506 843.864C-179.503 829.532 -179.123 812.844 -172.765 794.12C-166.405 775.388 -154.08 754.677 -136.287 732.382C-100.702 687.793 -43.3801 637.031 31.3029 583.283C180.656 475.797 399.257 356.505 651.705 250.903C904.152 145.3 1142.59 73.4079 1324 42.5305C1414.71 27.0904 1491.11 21.9158 1547.85 27.8835C1576.23 30.8674 1599.63 36.6319 1617.44 45.2544C1635.24 53.8732 1647.39 65.3177 1653.39 79.6498Z" stroke="#003459" stroke-width="2"/>
<path opacity="0.482759" d="M1689.89 156.467C1694.62 171.267 1692.79 187.857 1684.82 205.955C1676.85 224.062 1662.77 243.618 1643.1 264.277C1603.76 305.593 1542.24 351.164 1463.15 398.195C1305 492.249 1076.82 592.029 816.126 675.22C555.429 758.411 311.627 809.243 128.21 824.188C36.4932 831.662 -40.0684 830.157 -96.0758 819.266C-124.08 813.82 -146.893 806.038 -163.883 795.896C-180.865 785.759 -191.974 773.299 -196.7 758.499C-201.426 743.699 -199.593 727.109 -191.628 709.01C-183.659 690.904 -169.575 671.348 -149.907 650.689C-110.571 609.373 -49.0418 563.802 30.0431 516.771C188.199 422.717 416.37 322.937 677.067 239.746C937.765 156.555 1181.57 105.723 1364.98 90.7774C1456.7 83.304 1533.26 84.809 1589.27 95.6999C1617.27 101.146 1640.09 108.928 1657.08 119.07C1674.06 129.207 1685.17 141.667 1689.89 156.467Z" stroke="#003459" stroke-width="2"/>
<path opacity="0.517241" d="M1719.22 235.573C1722.64 250.728 1719.37 267.095 1709.86 284.429C1700.34 301.771 1684.61 320.025 1663.21 338.89C1620.43 376.618 1555.16 416.651 1472.27 456.608C1306.52 536.515 1070.51 616.022 803.55 676.169C536.587 736.316 289.276 765.701 105.249 764.6C13.2268 764.05 -62.9147 755.877 -117.762 740.146C-145.186 732.28 -167.235 722.539 -183.276 710.955C-199.311 699.376 -209.292 685.996 -212.711 670.84C-216.129 655.685 -212.858 639.319 -203.345 621.984C-193.828 604.642 -178.094 586.388 -156.7 567.524C-113.911 529.795 -48.6437 489.762 34.2411 449.805C199.996 369.898 436.001 290.391 702.964 230.244C969.926 170.097 1217.24 140.712 1401.27 141.813C1493.29 142.363 1569.43 150.536 1624.28 166.268C1651.7 174.133 1673.75 183.875 1689.79 195.458C1705.82 207.037 1715.81 220.418 1719.22 235.573Z" stroke="#003459" stroke-width="2"/>
<path opacity="0.551724" d="M1741.2 316.336C1743.29 331.731 1738.6 347.749 1727.61 364.188C1716.62 380.634 1699.36 397.446 1676.4 414.374C1630.48 448.228 1561.97 482.417 1475.92 514.996C1303.83 580.148 1061.78 638.777 790.587 675.422C519.391 712.067 270.452 719.781 87.2154 702.643C-4.41122 694.074 -79.5531 679.295 -132.822 658.843C-159.457 648.616 -180.574 636.991 -195.546 624.053C-210.511 611.121 -219.289 596.922 -221.374 581.527C-223.459 566.132 -218.773 550.113 -207.786 533.674C-196.794 517.228 -179.528 500.416 -156.571 483.489C-110.656 449.634 -42.1463 415.445 43.9076 382.866C216 317.715 458.043 259.085 729.239 222.44C1000.44 185.795 1249.37 178.081 1432.61 195.219C1524.24 203.789 1599.38 218.568 1652.65 239.019C1679.28 249.246 1700.4 260.872 1715.37 273.809C1730.34 286.741 1739.12 300.941 1741.2 316.336Z" stroke="#003459" stroke-width="2"/>
<path opacity="0.586207" d="M1755.71 398.107C1756.45 413.625 1750.38 429.173 1738 444.591C1725.62 460.016 1706.96 475.259 1682.61 490.12C1633.92 519.842 1562.69 547.928 1474.12 572.881C1297 622.781 1050.76 660.086 777.394 672.951C504.028 685.815 255.357 671.799 74.3048 638.755C-16.2293 622.231 -89.7997 600.958 -141.086 575.941C-166.729 563.432 -186.753 550.01 -200.541 535.817C-214.322 521.63 -221.83 506.72 -222.565 491.203C-223.301 475.685 -217.237 460.136 -204.859 444.718C-192.475 429.294 -173.81 414.051 -149.464 399.19C-100.773 369.468 -29.5418 341.381 59.0263 316.429C236.147 266.529 482.385 229.223 755.751 216.359C1029.12 203.495 1277.79 217.51 1458.84 250.555C1549.37 267.079 1622.95 288.351 1674.23 313.368C1699.87 325.877 1719.9 339.299 1733.69 353.492C1747.47 367.679 1754.98 382.589 1755.71 398.107Z" stroke="#003459" stroke-width="2"/>
<path opacity="0.62069" d="M1762.69 480.235C1762.07 495.757 1754.68 510.717 1741 524.997C1727.32 539.283 1707.4 552.841 1681.85 565.523C1630.75 590.886 1557.34 612.656 1466.93 629.792C1286.13 664.061 1037.57 679.759 764.117 668.744C490.662 657.73 244.15 622.091 66.6613 573.391C-22.0911 549.039 -93.5302 521.435 -142.443 492.043C-166.899 477.347 -185.678 462.231 -198.177 446.89C-210.67 431.556 -216.85 416.049 -216.231 400.527C-215.611 385.005 -208.215 370.044 -194.54 355.765C-180.859 341.479 -160.936 327.921 -135.387 315.239C-84.2892 289.876 -10.8798 268.106 79.5284 250.97C260.329 216.701 508.889 201.003 782.344 212.018C1055.8 223.032 1302.31 258.671 1479.8 307.371C1568.55 331.723 1639.99 359.327 1688.9 388.719C1713.36 403.415 1732.14 418.531 1744.64 433.872C1757.13 449.206 1763.31 464.713 1762.69 480.235Z" stroke="#003459" stroke-width="2"/>
<path opacity="0.655172" d="M1762.15 562.057C1760.18 577.466 1751.51 591.724 1736.64 604.757C1721.76 617.796 1700.73 629.564 1674.18 639.971C1621.06 660.782 1546.03 676.069 1454.47 685.259C1271.37 703.636 1022.38 697.607 750.913 662.798C479.45 627.988 236.974 570.998 64.3987 507.013C-21.8967 475.017 -90.6607 441.292 -136.827 407.749C-159.911 390.978 -177.302 374.283 -188.416 357.912C-199.526 341.547 -204.332 325.561 -202.362 310.152C-200.392 294.744 -191.721 280.486 -176.853 267.452C-161.978 254.414 -140.949 242.645 -114.391 232.239C-61.2763 211.427 13.7532 196.14 105.313 186.951C288.417 168.573 537.408 174.603 808.871 209.412C1080.33 244.221 1322.81 301.212 1495.39 365.197C1581.68 397.192 1650.45 430.918 1696.61 464.46C1719.7 481.232 1737.09 497.927 1748.2 514.298C1759.31 530.662 1764.12 546.649 1762.15 562.057Z" stroke="#003459" stroke-width="2"/>
<path opacity="0.689655" d="M1754.12 642.923C1750.82 658.101 1740.94 671.548 1724.99 683.235C1709.03 694.927 1687.06 704.818 1659.69 712.869C1604.97 728.971 1528.89 737.659 1436.87 738.832C1252.86 741.177 1005.33 713.467 737.927 655.127C470.521 596.788 233.927 518.88 67.5783 440.097C-15.6032 400.702 -81.1689 361.111 -124.238 323.673C-145.773 304.954 -161.644 286.807 -171.29 269.53C-180.932 252.26 -184.326 235.916 -181.021 220.738C-177.716 205.56 -167.834 192.113 -151.887 180.426C-135.933 168.734 -113.957 158.843 -86.5926 150.792C-31.8646 134.69 44.2138 126.002 136.229 124.829C320.244 122.484 567.769 150.194 835.175 208.534C1102.58 266.873 1339.17 344.781 1505.52 423.564C1588.7 462.959 1654.27 502.55 1697.34 539.988C1718.87 558.707 1734.74 576.854 1744.39 594.131C1754.03 611.401 1757.43 627.745 1754.12 642.923Z" stroke="#003459" stroke-width="2"/>
<path opacity="0.724138" d="M1738.73 722.179C1734.12 737.01 1723.1 749.545 1706.2 759.797C1689.28 770.053 1666.53 777.99 1638.57 783.625C1582.64 794.895 1506.09 796.918 1414.32 790.065C1230.8 776.361 986.622 727.18 725.309 645.755C463.996 564.33 235.084 466.096 76.2286 373.115C-3.2061 326.62 -65.0743 281.466 -104.719 240.417C-124.541 219.892 -138.77 200.432 -146.875 182.38C-154.975 164.336 -156.932 147.759 -152.317 132.927C-147.702 118.096 -136.686 105.561 -119.78 95.3092C-102.867 85.0528 -80.1129 77.1161 -52.1501 71.4812C3.77449 60.2116 80.3229 58.1886 172.093 65.0412C355.618 78.7451 599.794 127.926 861.107 209.351C1122.42 290.777 1351.33 389.01 1510.19 481.991C1589.62 528.486 1651.49 573.64 1691.13 614.689C1710.96 635.214 1725.19 654.675 1733.29 672.726C1741.39 690.77 1743.35 707.347 1738.73 722.179Z" stroke="#003459" stroke-width="2"/>
<path opacity="0.758621" d="M1716.15 799.194C1710.26 813.566 1698.19 825.093 1680.46 833.832C1662.72 842.574 1639.36 848.497 1611.01 851.673C1554.31 858.024 1477.88 853.367 1387.05 838.541C1205.41 808.892 966.442 738.614 713.211 634.723C459.98 530.832 240.492 413.021 90.3385 306.549C15.2553 253.308 -42.4448 202.934 -78.3624 158.587C-96.3216 136.413 -108.801 115.786 -115.302 97.0976C-121.799 78.4165 -122.305 61.7325 -116.414 47.3603C-110.524 32.9882 -98.4577 21.4619 -80.7223 12.7228C-62.9795 3.98006 -39.6192 -1.94267 -11.2709 -5.11846C45.4247 -11.4699 121.86 -6.81239 212.687 8.01353C394.325 37.6627 633.294 107.94 886.525 211.831C1139.76 315.723 1359.24 433.534 1509.4 540.006C1584.48 593.247 1642.18 643.62 1678.1 687.967C1696.06 710.142 1708.54 730.768 1715.04 749.457C1721.54 768.138 1722.04 784.822 1716.15 799.194Z" stroke="#003459" stroke-width="2"/>
<path opacity="0.793103" d="M1686.59 873.351C1679.47 887.154 1666.45 897.585 1648.02 904.744C1629.58 911.907 1605.79 915.77 1577.27 916.463C1520.24 917.848 1444.5 906.545 1355.31 883.859C1176.94 838.49 944.994 747.651 701.772 622.084C458.55 496.517 250.156 360.026 109.848 240.873C39.6873 181.292 -13.4053 126.082 -45.3229 78.7736C-61.2821 55.1191 -71.9171 33.4839 -76.7645 14.3C-81.6099 -4.87568 -80.6592 -21.5397 -73.5389 -35.3433C-66.4186 -49.1469 -53.3931 -59.5771 -34.9632 -66.7366C-16.5254 -73.8992 7.26278 -77.7629 35.7809 -78.4554C92.8159 -79.8403 168.557 -68.5377 257.75 -45.8513C436.118 -0.482513 668.061 90.3562 911.283 215.923C1154.51 341.49 1362.9 477.982 1503.21 597.134C1573.37 656.716 1626.46 711.926 1658.38 759.234C1674.34 782.888 1684.97 804.524 1689.82 823.707C1694.66 842.883 1693.71 859.547 1686.59 873.351Z" stroke="#003459" stroke-width="2"/>
<path opacity="0.827586" d="M1650.34 944.045C1642.04 957.175 1628.16 966.429 1609.17 971.955C1590.18 977.483 1566.14 979.258 1537.67 977.462C1480.73 973.87 1406.26 956.008 1319.38 925.634C1145.64 864.891 922.491 754.182 691.128 607.895C459.766 461.608 264.053 307.475 134.658 176.549C69.954 111.08 21.8728 51.4535 -5.8019 1.54461C-19.6395 -23.4103 -28.3491 -45.8895 -31.5065 -65.4223C-34.6625 -84.9468 -32.2634 -101.464 -23.9671 -114.594C-15.6707 -127.724 -1.78555 -136.979 17.1987 -142.504C36.191 -148.032 60.2262 -149.807 88.6969 -148.011C145.637 -144.419 220.108 -126.557 306.987 -96.1832C480.729 -35.4401 703.88 75.2686 935.242 221.555C1166.6 367.842 1362.32 521.976 1491.71 652.902C1556.42 718.371 1604.5 777.997 1632.17 827.906C1646.01 852.861 1654.72 875.34 1657.88 894.873C1661.03 914.398 1658.63 930.915 1650.34 944.045Z" stroke="#003459" stroke-width="2"/>
<path opacity="0.862069" d="M1607.71 1010.72C1598.3 1023.07 1583.66 1031.08 1564.27 1034.93C1544.87 1038.78 1520.77 1038.45 1492.56 1034.18C1436.15 1025.64 1363.52 1001.36 1279.61 963.526C1111.82 887.871 899.157 758.135 681.415 592.241C463.674 426.348 282.131 255.745 164.633 114.042C105.879 43.1837 63.1747 -20.405 39.9536 -72.5348C28.3428 -98.6002 21.625 -121.752 20.1816 -141.485C18.7389 -161.21 22.5683 -177.455 31.9775 -189.811C41.3866 -202.168 56.0258 -210.176 75.42 -214.026C94.8223 -217.877 118.921 -217.55 147.128 -213.279C203.541 -204.737 276.174 -180.453 360.078 -142.622C527.871 -66.9667 740.533 62.7694 958.274 228.663C1176.02 394.556 1357.56 565.159 1475.06 706.862C1533.81 777.72 1576.51 841.309 1599.74 893.439C1611.35 919.504 1618.06 942.656 1619.51 962.389C1620.95 982.114 1617.12 998.359 1607.71 1010.72Z" stroke="#003459" stroke-width="2"/>
<path opacity="0.896552" d="M1559.09 1072.81C1548.64 1084.3 1533.36 1091.01 1513.7 1093.15C1494.04 1095.29 1470.06 1092.87 1442.33 1086.15C1386.87 1072.73 1316.63 1042.21 1236.34 997.205C1075.77 907.214 875.218 759.438 672.755 575.2C470.292 390.963 304.3 205.19 199.594 53.7875C147.236 -21.9203 110.234 -88.9875 91.6436 -142.941C82.348 -169.919 77.673 -193.568 77.9547 -213.351C78.2362 -233.126 83.4668 -248.975 93.9172 -260.463C104.368 -271.952 119.649 -278.654 139.306 -280.798C158.971 -282.943 182.95 -280.517 210.678 -273.804C266.134 -260.377 336.377 -229.854 416.667 -184.854C577.234 -94.8629 777.788 52.9132 980.252 237.151C1182.71 421.388 1348.71 607.162 1453.41 758.564C1505.77 834.271 1542.77 901.339 1561.36 955.293C1570.66 982.27 1575.33 1005.92 1575.05 1025.7C1574.77 1045.48 1569.54 1061.33 1559.09 1072.81Z" stroke="#003459" stroke-width="2"/>
<path opacity="0.931035" d="M1504.89 1129.84C1493.48 1140.37 1477.67 1145.72 1457.9 1146.14C1438.13 1146.56 1414.45 1142.06 1387.41 1132.95C1333.33 1114.74 1266.01 1078.21 1189.95 1026.39C1037.83 922.744 850.91 758.053 665.266 556.873C479.621 355.694 330.445 156.164 239.327 -3.78435C193.764 -83.7657 162.746 -153.801 148.927 -209.169C142.018 -236.853 139.421 -260.819 141.426 -280.501C143.429 -300.176 150.021 -315.508 161.433 -326.041C172.845 -336.575 188.654 -341.919 208.423 -342.342C228.2 -342.764 251.878 -338.257 278.916 -329.152C332.992 -310.943 400.31 -274.414 476.377 -222.588C628.495 -118.946 815.415 45.746 1001.06 246.925C1186.7 448.105 1335.88 647.635 1427 807.583C1472.56 887.565 1503.58 957.6 1517.4 1012.97C1524.31 1040.65 1526.9 1064.62 1524.9 1084.3C1522.9 1103.97 1516.3 1119.31 1504.89 1129.84Z" stroke="#003459" stroke-width="2"/>
<path opacity="0.965517" d="M1445.58 1181.33C1433.29 1190.83 1417.08 1194.77 1397.35 1193.47C1377.61 1192.17 1354.41 1185.61 1328.27 1174.19C1275.98 1151.33 1212.1 1109.08 1140.84 1050.82C998.327 934.313 826.464 753.959 659.051 537.369C491.638 320.779 360.412 109.011 283.577 -58.267C245.155 -141.913 220.358 -214.384 211.416 -270.743C206.945 -298.924 206.446 -323.024 210.158 -342.457C213.869 -361.881 221.772 -376.579 234.059 -386.078C246.346 -395.576 262.56 -399.522 282.291 -398.219C302.031 -396.916 325.227 -390.362 351.37 -378.936C403.655 -356.083 467.536 -313.826 538.798 -255.568C681.312 -139.063 853.175 41.291 1020.59 257.881C1188 474.472 1319.23 686.24 1396.06 853.517C1434.48 937.164 1459.28 1009.63 1468.22 1065.99C1472.69 1094.17 1473.19 1118.27 1469.48 1137.71C1465.77 1157.13 1457.87 1171.83 1445.58 1181.33Z" stroke="#003459" stroke-width="2"/>
<path d="M1381.66 1226.85C1368.59 1235.24 1352.09 1237.76 1332.55 1234.74C1313 1231.72 1290.46 1223.17 1265.41 1209.51C1215.32 1182.18 1155.36 1134.52 1089.44 1070.28C957.62 941.794 802.122 747.151 654.215 516.798C506.308 286.446 394.031 64.0512 332.062 -109.282C301.075 -195.957 282.686 -270.311 278.689 -327.234C276.691 -355.696 278.294 -379.747 283.686 -398.781C289.075 -417.808 298.229 -431.761 311.297 -440.152C324.366 -448.543 340.863 -451.06 360.406 -448.042C379.957 -445.024 402.494 -436.473 427.543 -422.811C477.639 -395.488 537.597 -347.825 603.514 -283.579C735.337 -155.097 890.835 39.5455 1038.74 269.898C1186.65 500.251 1298.93 722.646 1360.89 895.979C1391.88 982.654 1410.27 1057.01 1414.27 1113.93C1416.27 1142.39 1414.66 1166.44 1409.27 1185.48C1403.88 1204.5 1394.73 1218.46 1381.66 1226.85Z" stroke="#003459" stroke-width="2"/>
</g>
<g opacity="0.1">
<path opacity="0.0526316" d="M840.698 3150.81C963.813 3167 1249.34 3112.94 1406.51 2767.23C1602.98 2335.09 1416.81 1911.09 1536.36 1470.73C1624.59 1145.7 2000.99 408.844 2513.65 275.389" stroke="#003459" stroke-width="3"/>
<path opacity="0.105263" d="M640.557 3057.73C761.307 3086.7 1050.92 3062.78 1243.37 2735.4C1483.93 2326.17 1343.11 1885.04 1508.03 1459.58C1629.76 1145.57 2081.12 452.101 2604.93 372.966" stroke="#003459" stroke-width="3"/>
<path opacity="0.157895" d="M451.006 2949.83C568.069 2991.26 858.599 2997.75 1084.22 2692.28C1366.24 2310.44 1272.3 1857.02 1480.79 1451.14C1634.68 1151.57 2156.06 509.09 2685.28 485.142" stroke="#003459" stroke-width="3"/>
<path opacity="0.210526" d="M273.535 2828.3C385.627 2881.74 673.891 2918.56 930.209 2638.35C1250.61 2288.09 1204.57 1827.33 1454.35 1445.48C1638.71 1163.64 2224.4 579.186 2753.23 610.687" stroke="#003459" stroke-width="3"/>
<path opacity="0.263158" d="M109.496 2694.48C215.39 2759.34 498.23 2826.09 782.437 2574.21C1137.7 2259.37 1140.07 1796.33 1428.4 1442.68C1641.21 1181.66 2284.8 661.638 2807.44 748.243" stroke="#003459" stroke-width="3"/>
<path opacity="0.315789" d="M-39.8908 2549.84C58.6445 2625.41 332.961 2721.36 641.943 2500.58C1028.17 2224.59 1078.93 1764.35 1402.66 1442.77C1641.59 1205.43 2336.01 755.541 2846.75 896.302" stroke="#003459" stroke-width="3"/>
<path opacity="0.368421" d="M-173.578 2395.97C-83.4806 2481.42 179.307 2605.52 509.679 2418.24C922.645 2184.15 1021.24 1731.73 1376.81 1445.77C1639.24 1234.7 2376.9 859.87 2870.13 1053.24" stroke="#003459" stroke-width="3"/>
<path opacity="0.421053" d="M-290.686 2234.56C-210.014 2328.97 38.3656 2479.85 386.509 2328.14C821.687 2138.49 967.034 1698.87 1350.55 1451.64C1633.61 1269.17 2406.42 973.497 2876.74 1217.37" stroke="#003459" stroke-width="3"/>
<path opacity="0.473684" d="M-390.517 2067.39C-320.154 2169.71 -88.9036 2345.73 273.195 2231.24C725.819 2088.12 916.325 1666.11 1323.59 1460.32C1624.18 1308.44 2423.66 1095.18 2865.92 1386.87" stroke="#003459" stroke-width="3"/>
<path opacity="0.526316" d="M-472.563 1896.29C-413.28 2005.41 -201.693 2204.63 170.395 2128.62C635.505 2033.6 869.083 1633.82 1295.63 1471.73C1610.45 1352.1 2427.86 1223.58 2837.22 1559.9" stroke="#003459" stroke-width="3"/>
<path opacity="0.578947" d="M-536.516 1723.15C-488.963 1837.86 -299.356 2058.11 78.6437 2021.41C551.144 1975.53 825.234 1602.35 1266.39 1485.75C1592 1399.68 2418.38 1357.31 2790.34 1734.56" stroke="#003459" stroke-width="3"/>
<path opacity="0.631579" d="M-582.255 1549.87C-546.952 1668.92 -381.404 1907.78 -1.63273 1910.79C473.081 1914.55 784.681 1572.08 1235.62 1502.22C1568.44 1450.67 2394.73 1494.9 2725.23 1908.97" stroke="#003459" stroke-width="3"/>
<path opacity="0.684211" d="M-609.865 1378.35C-587.2 1500.44 -447.524 1755.29 -70.1429 1797.98C401.583 1851.34 747.278 1543.32 1203.05 1520.99C1539.45 1504.5 2356.6 1634.87 2642 2081.21" stroke="#003459" stroke-width="3"/>
<path opacity="0.736842" d="M-619.634 1210.47C-609.854 1334.26 -497.581 1602.31 -126.724 1684.22C336.846 1786.59 712.849 1516.4 1168.47 1541.83C1504.75 1560.6 2303.81 1775.66 2541 2249.38" stroke="#003459" stroke-width="3"/>
<path opacity="0.789474" d="M-612.034 1048.1C-615.247 1172.23 -531.606 1450.54 -171.338 1570.76C278.997 1721.03 681.189 1491.62 1131.66 1564.54C1464.14 1618.35 2236.35 1915.76 2422.73 2411.67" stroke="#003459" stroke-width="3"/>
<path opacity="0.842105" d="M-587.741 892.994C-603.912 1016.11 -549.82 1301.64 -204.087 1458.85C228.08 1655.37 652.054 1469.26 1092.44 1588.86C1417.48 1677.14 2154.38 2053.63 2287.9 2566.3" stroke="#003459" stroke-width="3"/>
<path opacity="0.894737" d="M-547.604 746.874C-576.555 867.62 -552.604 1157.24 -225.194 1349.73C184.069 1590.34 625.18 1449.57 1050.66 1614.55C1364.69 1736.31 2058.22 2187.76 2137.42 2711.58" stroke="#003459" stroke-width="3"/>
<path opacity="0.947368" d="M-492.645 611.343C-534.059 728.4 -540.513 1018.93 -235.013 1244.59C146.862 1526.66 600.277 1432.77 1006.18 1641.32C1305.77 1795.24 1948.32 2316.7 1972.33 2845.92" stroke="#003459" stroke-width="3"/>
<path d="M-424.057 487.896C-477.48 599.981 -514.267 888.239 -234.025 1144.59C116.279 1465.03 577.03 1419.05 958.92 1668.88C1240.78 1853.28 1825.31 2439.04 1793.87 2967.86" stroke="#003459" stroke-width="3"/>
</g>
</g>
<defs>
<clipPath id="clip0">
<rect width="1680" height="6687" fill="white"/>
</clipPath>
</defs>
</svg>
