<svg width="242" height="61" viewBox="0 0 242 61" fill="none" xmlns="http://www.w3.org/2000/svg">
<path d="M81.0781 30.7031C81.0781 31.2656 80.9792 31.875 80.7812 32.5312C80.5833 33.1771 80.2604 33.7812 79.8125 34.3438C79.375 34.8958 78.7969 35.3594 78.0781 35.7344C77.3698 36.1094 76.5052 36.2969 75.4844 36.2969H68.1562V32.4375H75.4844C76.0365 32.4375 76.4635 32.2708 76.7656 31.9375C77.0677 31.5938 77.2188 31.1719 77.2188 30.6719C77.2188 30.1406 77.0469 29.724 76.7031 29.4219C76.3698 29.1198 75.9635 28.9688 75.4844 28.9688H68.1562C67.6042 28.9688 67.1771 29.1406 66.875 29.4844C66.5729 29.8177 66.4219 30.2344 66.4219 30.7344V36.4062C66.4219 36.9479 66.5885 37.3698 66.9219 37.6719C67.2656 37.974 67.6875 38.125 68.1875 38.125H75.4844V42H68.1562C67.5938 42 66.9844 41.901 66.3281 41.7031C65.6823 41.5052 65.0781 41.1875 64.5156 40.75C63.9635 40.3021 63.5 39.724 63.125 39.0156C62.75 38.2969 62.5625 37.4271 62.5625 36.4062V30.7031C62.5625 30.1406 62.6615 29.5365 62.8594 28.8906C63.0573 28.2344 63.375 27.6302 63.8125 27.0781C64.2604 26.5156 64.8385 26.0469 65.5469 25.6719C66.2656 25.2969 67.1354 25.1094 68.1562 25.1094H75.4844C76.0469 25.1094 76.651 25.2083 77.2969 25.4062C77.9531 25.6042 78.5573 25.9271 79.1094 26.375C79.6719 26.8125 80.1406 27.3906 80.5156 28.1094C80.8906 28.8177 81.0781 29.6823 81.0781 30.7031ZM100.172 42H89.1562C88.5938 42 87.9792 41.901 87.3125 41.7031C86.6458 41.5052 86.026 41.1823 85.4531 40.7344C84.8906 40.276 84.4167 39.6875 84.0312 38.9688C83.6562 38.2396 83.4688 37.349 83.4688 36.2969V30.7969C83.4688 30.4115 83.5104 30.0052 83.5938 29.5781C83.6875 29.151 83.8281 28.7292 84.0156 28.3125C84.2031 27.8854 84.4427 27.4792 84.7344 27.0938C85.0365 26.7083 85.3958 26.3698 85.8125 26.0781C86.2396 25.7865 86.7292 25.5521 87.2812 25.375C87.8333 25.1979 88.4583 25.1094 89.1562 25.1094H100.172V29.1719H89.1562C88.625 29.1719 88.2188 29.3073 87.9375 29.5781C87.6667 29.849 87.5312 30.2656 87.5312 30.8281V36.2969C87.5312 36.8281 87.6719 37.2344 87.9531 37.5156C88.2344 37.7969 88.6458 37.9375 89.1875 37.9375H100.172V42ZM121.781 36.2969C121.781 36.9948 121.693 37.625 121.516 38.1875C121.339 38.7396 121.104 39.2292 120.812 39.6562C120.521 40.0729 120.182 40.4323 119.797 40.7344C119.411 41.026 119.005 41.2656 118.578 41.4531C118.161 41.6406 117.734 41.7812 117.297 41.875C116.87 41.9583 116.464 42 116.078 42H108.75C108.188 42 107.573 41.901 106.906 41.7031C106.24 41.5052 105.62 41.1823 105.047 40.7344C104.484 40.276 104.01 39.6875 103.625 38.9688C103.25 38.2396 103.062 37.349 103.062 36.2969V30.7969C103.062 29.7552 103.25 28.875 103.625 28.1562C104.01 27.4271 104.484 26.8385 105.047 26.3906C105.62 25.9323 106.24 25.6042 106.906 25.4062C107.573 25.2083 108.188 25.1094 108.75 25.1094H116.078C117.12 25.1094 118.005 25.2969 118.734 25.6719C119.464 26.0469 120.052 26.5208 120.5 27.0938C120.948 27.6562 121.271 28.2708 121.469 28.9375C121.677 29.6042 121.781 30.224 121.781 30.7969V36.2969ZM117.719 30.8281C117.719 30.2656 117.578 29.849 117.297 29.5781C117.016 29.3073 116.609 29.1719 116.078 29.1719H108.781C108.24 29.1719 107.828 29.3125 107.547 29.5938C107.266 29.8646 107.125 30.2656 107.125 30.7969V36.2969C107.125 36.8281 107.266 37.2344 107.547 37.5156C107.828 37.7969 108.24 37.9375 108.781 37.9375H116.078C116.63 37.9375 117.042 37.7969 117.312 37.5156C117.583 37.2344 117.719 36.8281 117.719 36.2969V30.8281ZM141.578 36.2969C141.578 36.9948 141.49 37.625 141.312 38.1875C141.135 38.7396 140.901 39.2292 140.609 39.6562C140.318 40.0729 139.979 40.4323 139.594 40.7344C139.208 41.026 138.802 41.2656 138.375 41.4531C137.958 41.6406 137.531 41.7812 137.094 41.875C136.667 41.9583 136.26 42 135.875 42H124.875V37.9375H135.844C136.396 37.9375 136.812 37.7969 137.094 37.5156C137.375 37.2344 137.516 36.8281 137.516 36.2969C137.464 35.2135 136.917 34.6719 135.875 34.6719H129.578C128.682 34.6719 127.922 34.5156 127.297 34.2031C126.672 33.8906 126.161 33.5 125.766 33.0312C125.38 32.5625 125.099 32.0573 124.922 31.5156C124.755 30.974 124.672 30.4688 124.672 30C124.672 29.0938 124.833 28.3333 125.156 27.7188C125.479 27.0938 125.885 26.5885 126.375 26.2031C126.865 25.8177 127.396 25.5417 127.969 25.375C128.542 25.1979 129.078 25.1094 129.578 25.1094H139.562V29.1719H129.609C129.401 29.1719 129.234 29.1979 129.109 29.25C128.995 29.2917 128.906 29.3542 128.844 29.4375C128.792 29.5104 128.76 29.5938 128.75 29.6875C128.74 29.7708 128.734 29.8542 128.734 29.9375C128.745 30.1042 128.776 30.2344 128.828 30.3281C128.88 30.4219 128.943 30.4896 129.016 30.5312C129.099 30.5729 129.188 30.599 129.281 30.6094C129.385 30.6094 129.484 30.6094 129.578 30.6094H135.875C136.917 30.6094 137.802 30.7969 138.531 31.1719C139.26 31.5469 139.849 32.0208 140.297 32.5938C140.745 33.1562 141.068 33.7708 141.266 34.4375C141.474 35.1042 141.578 35.724 141.578 36.2969ZM163.062 36.2969C163.062 36.9948 162.974 37.625 162.797 38.1875C162.62 38.7396 162.385 39.2292 162.094 39.6562C161.802 40.0729 161.464 40.4323 161.078 40.7344C160.693 41.026 160.286 41.2656 159.859 41.4531C159.443 41.6406 159.021 41.7812 158.594 41.875C158.167 41.9583 157.76 42 157.375 42H150.047V37.9375H157.375C157.917 37.9375 158.323 37.7969 158.594 37.5156C158.865 37.2344 159 36.8281 159 36.2969V30.8281C159 30.2656 158.859 29.849 158.578 29.5781C158.307 29.3073 157.906 29.1719 157.375 29.1719H150.078C149.526 29.1719 149.109 29.3125 148.828 29.5938C148.547 29.8646 148.406 30.2656 148.406 30.7969V47.2812H144.344V30.7969C144.344 30.099 144.432 29.474 144.609 28.9219C144.786 28.3698 145.021 27.8854 145.312 27.4688C145.615 27.0417 145.958 26.6823 146.344 26.3906C146.729 26.0885 147.13 25.8438 147.547 25.6562C147.974 25.4688 148.401 25.3333 148.828 25.25C149.266 25.1562 149.672 25.1094 150.047 25.1094H157.375C158.073 25.1094 158.698 25.1979 159.25 25.375C159.802 25.5521 160.286 25.7865 160.703 26.0781C161.13 26.3698 161.49 26.7083 161.781 27.0938C162.083 27.4792 162.328 27.8854 162.516 28.3125C162.703 28.7292 162.839 29.151 162.922 29.5781C163.016 30.0052 163.062 30.4115 163.062 30.7969V36.2969ZM183.969 36.4062C183.969 36.9688 183.87 37.5781 183.672 38.2344C183.474 38.8802 183.151 39.4844 182.703 40.0469C182.266 40.599 181.688 41.0625 180.969 41.4375C180.26 41.8125 179.396 42 178.375 42H171.047C170.484 42 169.875 41.901 169.219 41.7031C168.573 41.5052 167.969 41.1875 167.406 40.75C166.854 40.3021 166.391 39.724 166.016 39.0156C165.641 38.2969 165.453 37.4271 165.453 36.4062C165.453 35.8438 165.552 35.2344 165.75 34.5781C165.948 33.9219 166.266 33.3177 166.703 32.7656C167.151 32.2031 167.729 31.7344 168.438 31.3594C169.156 30.9844 170.026 30.7969 171.047 30.7969H178.375V34.6719H171.047C170.495 34.6719 170.068 34.8438 169.766 35.1875C169.464 35.5208 169.312 35.9375 169.312 36.4375C169.312 36.9688 169.484 37.3854 169.828 37.6875C170.182 37.9792 170.599 38.125 171.078 38.125H178.375C178.927 38.125 179.354 37.9583 179.656 37.625C179.958 37.2917 180.109 36.875 180.109 36.375V30.7031C180.109 30.1719 179.943 29.75 179.609 29.4375C179.286 29.125 178.875 28.9688 178.375 28.9688H169.453V25.1094H178.375C178.938 25.1094 179.542 25.2083 180.188 25.4062C180.844 25.6042 181.448 25.9271 182 26.375C182.562 26.8125 183.031 27.3906 183.406 28.1094C183.781 28.8177 183.969 29.6823 183.969 30.7031V36.4062ZM203.797 42H192.781C192.219 42 191.604 41.901 190.938 41.7031C190.271 41.5052 189.651 41.1823 189.078 40.7344C188.516 40.276 188.042 39.6875 187.656 38.9688C187.281 38.2396 187.094 37.349 187.094 36.2969V30.7969C187.094 30.4115 187.135 30.0052 187.219 29.5781C187.312 29.151 187.453 28.7292 187.641 28.3125C187.828 27.8854 188.068 27.4792 188.359 27.0938C188.661 26.7083 189.021 26.3698 189.438 26.0781C189.865 25.7865 190.354 25.5521 190.906 25.375C191.458 25.1979 192.083 25.1094 192.781 25.1094H203.797V29.1719H192.781C192.25 29.1719 191.844 29.3073 191.562 29.5781C191.292 29.849 191.156 30.2656 191.156 30.8281V36.2969C191.156 36.8281 191.297 37.2344 191.578 37.5156C191.859 37.7969 192.271 37.9375 192.812 37.9375H203.797V42ZM225.203 30.7031C225.203 31.2656 225.104 31.875 224.906 32.5312C224.708 33.1771 224.385 33.7812 223.938 34.3438C223.5 34.8958 222.922 35.3594 222.203 35.7344C221.495 36.1094 220.63 36.2969 219.609 36.2969H212.281V32.4375H219.609C220.161 32.4375 220.589 32.2708 220.891 31.9375C221.193 31.5938 221.344 31.1719 221.344 30.6719C221.344 30.1406 221.172 29.724 220.828 29.4219C220.495 29.1198 220.089 28.9688 219.609 28.9688H212.281C211.729 28.9688 211.302 29.1406 211 29.4844C210.698 29.8177 210.547 30.2344 210.547 30.7344V36.4062C210.547 36.9479 210.714 37.3698 211.047 37.6719C211.391 37.974 211.812 38.125 212.312 38.125H219.609V42H212.281C211.719 42 211.109 41.901 210.453 41.7031C209.807 41.5052 209.203 41.1875 208.641 40.75C208.089 40.3021 207.625 39.724 207.25 39.0156C206.875 38.2969 206.688 37.4271 206.688 36.4062V30.7031C206.688 30.1406 206.786 29.5365 206.984 28.8906C207.182 28.2344 207.5 27.6302 207.938 27.0781C208.385 26.5156 208.964 26.0469 209.672 25.6719C210.391 25.2969 211.26 25.1094 212.281 25.1094H219.609C220.172 25.1094 220.776 25.2083 221.422 25.4062C222.078 25.6042 222.682 25.9271 223.234 26.375C223.797 26.8125 224.266 27.3906 224.641 28.1094C225.016 28.8177 225.203 29.6823 225.203 30.7031Z" fill="white"/>
<rect x="2" y="2" width="238" height="57" rx="13" stroke="white" stroke-width="4"/>
<path d="M58.4141 51.1484C58.4141 51.6745 58.3177 52.1198 58.125 52.4844C57.9375 52.8438 57.7005 53.138 57.4141 53.3672C57.1328 53.5911 56.8255 53.7526 56.4922 53.8516C56.1589 53.9505 55.849 54 55.5625 54H49.0469V51.9688H55.5625C55.8385 51.9688 56.0417 51.8984 56.1719 51.7578C56.3073 51.6172 56.375 51.4141 56.375 51.1484V49.4219H49.0469V47.375H56.375V45.6641C56.375 45.1068 56.1042 44.8281 55.5625 44.8281H49.0469V42.7969H55.5625C55.9115 42.7969 56.224 42.8411 56.5 42.9297C56.776 43.0182 57.0182 43.138 57.2266 43.2891C57.4401 43.4349 57.6224 43.6042 57.7734 43.7969C57.9245 43.9896 58.0469 44.1927 58.1406 44.4062C58.2344 44.6146 58.3021 44.8281 58.3438 45.0469C58.3906 45.2604 58.4141 45.4609 58.4141 45.6484V51.1484Z" fill="white"/>
<g opacity="0.4">
<path opacity="0.4" d="M29.9326 49.9996C35.6396 49.9996 40.266 45.3733 40.266 39.6663C40.266 33.9594 35.6396 29.333 29.9326 29.333C24.2257 29.333 19.5993 33.9594 19.5993 39.6663C19.5993 45.3733 24.2257 49.9996 29.9326 49.9996Z" stroke="white" stroke-width="3.168" stroke-miterlimit="10"/>
</g>
<g opacity="0.6">
<path opacity="0.6" d="M29.9997 49.9996C38.468 49.9996 45.333 43.1347 45.333 34.6663C45.333 26.198 38.468 19.333 29.9997 19.333C21.5313 19.333 14.6663 26.198 14.6663 34.6663C14.6663 43.1347 21.5313 49.9996 29.9997 49.9996Z" stroke="white" stroke-width="3.168" stroke-miterlimit="10"/>
</g>
<path d="M30 49.9999C41.0457 49.9999 50 41.0456 50 30C50 18.9543 41.0457 10 30 10C18.9543 10 10 18.9543 10 30C10 41.0456 18.9543 49.9999 30 49.9999Z" stroke="white" stroke-width="3.168" stroke-miterlimit="10"/>
</svg>
